<svg width="31" height="14" viewBox="0 0 31 14" fill="none" xmlns="http://www.w3.org/2000/svg">
<path d="M7.6399 13.54H4.1999V4.60004L1.9599 6.86004L-9.76492e-05 4.80004L4.6599 0.200038H7.6399V13.54ZM15.4252 13.78C13.4119 13.78 11.8985 13.1467 10.8852 11.88C9.87188 10.6 9.36521 8.94004 9.36521 6.90004C9.36521 4.78004 9.95855 3.10004 11.1452 1.86004C12.3319 0.620038 13.9385 3.8147e-05 15.9652 3.8147e-05C17.5785 3.8147e-05 18.9319 0.426705 20.0252 1.28004L18.5252 3.92004C17.8052 3.33337 16.9519 3.04004 15.9652 3.04004C15.1252 3.04004 14.3919 3.32671 13.7652 3.90004C13.1519 4.46004 12.8452 5.18671 12.8452 6.08004V6.24004C13.1785 5.78671 13.6385 5.42004 14.2252 5.14004C14.8252 4.86004 15.4585 4.72004 16.1252 4.72004C17.4052 4.72004 18.4919 5.11337 19.3852 5.90004C20.2919 6.67337 20.7452 7.74004 20.7452 9.10004C20.7452 10.4734 20.2452 11.6 19.2452 12.48C18.2452 13.3467 16.9719 13.78 15.4252 13.78ZM15.2052 10.74C15.8185 10.74 16.3119 10.5867 16.6852 10.28C17.0719 9.97337 17.2652 9.62004 17.2652 9.22004C17.2652 8.70004 17.0452 8.30671 16.6052 8.04004C16.1785 7.77337 15.6719 7.64004 15.0852 7.64004C14.1785 7.64004 13.4319 7.94004 12.8452 8.54004C12.8985 9.15337 13.1185 9.67337 13.5052 10.1C13.8919 10.5267 14.4585 10.74 15.2052 10.74Z" fill="white"/>
<path d="M30.749 7.72004H27.269V11.68H25.249V7.72004H21.769V5.88004H25.249V2.06004H27.269V5.88004H30.749V7.72004Z" fill="#A2D6A2"/>
</svg>
