<svg width="359" height="84" viewBox="0 0 359 84" fill="none" xmlns="http://www.w3.org/2000/svg">
<path d="M19.2631 0.0214844L0 44.8586H16.4476L19.6887 37.3657H40.9062L44.0851 44.8586H48.9827V17.7403L41.3973 0.0214844H19.2631ZM24.7663 24.3621L30.2696 12.641L35.7729 24.3621H24.7663Z" fill="white"/>
<path d="M148.146 0.0214844L167.409 44.8586H150.962L147.721 37.3657H126.503L123.324 44.8586H118.426V17.7403L126.012 0.0214844H148.146ZM142.643 24.3621L137.14 12.641L131.636 24.3621H142.643Z" fill="white"/>
<path d="M83.6433 24.707L69.4434 0.0214844H52.7024L52.7024 44.8586H66.9632V25.0022L77.5038 44.218H89.2844L100.465 24.9598V44.8586H114.706V0.0214844H97.9649L83.6433 24.707Z" fill="white"/>
<path d="M203.579 38.0382C205.171 35.9816 205.981 33.44 205.981 30.4787C205.981 28.2854 205.388 26.2385 204.313 24.7188C204.187 24.5398 204.049 24.3641 203.907 24.1981C203.85 24.1331 203.793 24.068 203.737 24.0061L203.633 23.8955C202.895 23.1308 202.022 22.5808 201.029 22.2586C202.013 21.8519 202.87 21.2791 203.576 20.5535C203.623 20.5046 203.671 20.4558 203.718 20.4038L203.916 20.1792C205.224 18.6432 205.918 16.5541 205.918 14.1427C205.918 11.2432 205.136 8.74726 203.595 6.72641C198.467 0 186.151 0 180.891 0C164.95 0 159.485 6.00398 157.707 11.0415L157.685 11.1033L159.768 15.8967H172.904V15.734C172.904 13.6481 173.733 10.8755 180.894 10.8755H183.478C187.922 11.0675 190.178 12.3789 190.178 14.7805C190.178 16.6972 188.42 17.9859 179.844 18.051H179.315V26.8308H179.472C188.385 26.8308 190.175 28.0804 190.175 30.1012C190.175 32.4345 188.224 33.6906 184.212 33.9412C184.118 33.9477 184.023 33.9542 183.932 33.9607L183.138 33.9933C183.012 33.9965 182.882 33.9998 182.75 33.9998C182.526 33.9998 182.296 34.003 182.057 34.003H181.445C173.282 34.003 172.901 32.0114 172.901 28.191V28.0283H165.038L172.088 44.257L172.173 44.27C175.785 44.8785 179.192 44.8785 181.448 44.8785C192.621 44.8785 200.065 42.5778 203.582 38.0382H203.579Z" fill="white"/>
<path d="M299.477 16.0346H274.72V0H261.035V44.8785H274.72V28.8452H299.477V44.8785H313.738V0H299.477V16.0346Z" fill="white"/>
<path d="M242.635 40.3789C235.876 43.0984 230.999 43.0956 224.248 40.3789L221.972 47.5831C229.854 50.7881 237.037 50.7881 244.914 47.5831L242.635 40.3789Z" fill="white"/>
<path d="M217.013 26.6758L237.734 0H257.312V44.8789H247.974L244.951 35.3203L243.672 35.834V18.2246L227.961 37.6445C227.215 37.4095 226.431 37.1282 225.6 36.7939L221.933 35.3184L218.913 44.8789H203.684L204.245 44.5566C205.567 43.5903 206.701 42.4923 207.647 41.2568C209.803 38.4408 210.897 35.0109 210.897 31.0596C210.897 27.9986 210.048 25.0959 208.507 22.8906C208.362 22.6802 208.206 22.4726 208.044 22.2725C209.869 20.0258 210.834 17.075 210.834 13.7344C210.834 9.85874 209.777 6.48664 207.684 3.71191C206.748 2.46951 205.817 0.904206 204.6 0H217.013V26.6758ZM243.672 43.6504L244.061 44.8789H244.059L243.672 43.6553V43.6504ZM224.249 40.375C224.637 40.5312 225.02 40.6772 225.396 40.8154V40.8174C225.224 40.7541 225.05 40.69 224.875 40.623L224.249 40.376V40.375Z" fill="white"/>
<path fill-rule="evenodd" clip-rule="evenodd" d="M86.7352 52.543C73.7888 52.543 67.5845 57.409 67.5845 67.6662C67.5845 78.7137 73.2561 83.9289 86.9812 83.9289C96.8432 83.9289 102.898 81.91 105.407 76.0723L105.343 60.7775C102.659 54.5934 96.1381 52.5457 86.7352 52.5457V52.543ZM87.1055 75.8639C80.9418 75.8639 78.106 72.7082 78.106 68.2373C78.106 63.4605 80.9418 60.6107 86.9838 60.6107C92.3663 60.6107 96.2294 63.152 96.2294 68.2373C96.2294 73.3226 92.696 75.8639 87.1055 75.8639Z" fill="white"/>
<path fill-rule="evenodd" clip-rule="evenodd" d="M86.7352 52.543C73.7888 52.543 67.5845 57.409 67.5845 67.6662C67.5845 78.7137 73.2561 83.9289 86.9812 83.9289C96.8432 83.9289 102.898 81.91 105.407 76.0723L105.343 60.7775C102.659 54.5934 96.1381 52.5457 86.7352 52.5457V52.543ZM87.1055 75.8639C80.9418 75.8639 78.106 72.7082 78.106 68.2373C78.106 63.4605 80.9418 60.6107 86.9838 60.6107C92.3663 60.6107 96.2294 63.152 96.2294 68.2373C96.2294 73.3226 92.696 75.8639 87.1055 75.8639Z" fill="white"/>
<path fill-rule="evenodd" clip-rule="evenodd" d="M188.801 53.1875L181.734 69.5837L187.254 83.303L188.959 78.5212H203.221L205.232 83.2924H216.392L203.372 53.1875H188.801ZM192.371 69.7935L196.07 61.9234L199.769 69.7935H192.371Z" fill="white"/>
<path fill-rule="evenodd" clip-rule="evenodd" d="M188.801 53.1875L181.734 69.5837L187.254 83.303L188.959 78.5212H203.221L205.232 83.2924H216.392L203.372 53.1875H188.801ZM192.371 69.7935L196.07 61.9234L199.769 69.7935H192.371Z" fill="white"/>
<path d="M156.759 53.1875L148.809 71.7629V83.2924H154.891L164.069 61.6603L173.249 83.2924H184.214L171.462 53.1875H156.759Z" fill="white"/>
<path d="M156.759 53.1875L148.809 71.7629V83.2924H154.891L164.069 61.6603L173.249 83.2924H184.214L171.462 53.1875H156.759Z" fill="white"/>
<path d="M251.114 83.2924V53.1875H238.094L224.453 71.1223V53.1875H214.532V70.8021L220.113 83.2924H227.553L241.814 65.3576V83.2924H251.114Z" fill="white"/>
<path d="M251.114 83.2924V53.1875H238.094L224.453 71.1223V53.1875H214.532V70.8021L220.113 83.2924H227.553L241.814 65.3576V83.2924H251.114Z" fill="white"/>
<path d="M145.088 83.2924V53.1875H133.928V63.436H120.287V53.1875H109.126V83.2924H120.287V72.4034H133.928V83.2924H145.088Z" fill="white"/>
<path d="M145.088 83.2924V53.1875H133.928V63.436H120.287V53.1875H109.126V83.2924H120.287V72.4034H133.928V83.2924H145.088Z" fill="white"/>
<path d="M291.416 83.2924V53.1875H279.635V63.436H265.994V53.1875H254.834V83.2924H265.994V72.4034H279.635V83.2924H291.416Z" fill="white"/>
<path d="M291.416 83.2924V53.1875H279.635V63.436H265.994V53.1875H254.834V83.2924H265.994V72.4034H279.635V83.2924H291.416Z" fill="white"/>
<path d="M317.49 0L317.458 44.8785H331.481V15.18H359L358.93 0H317.49Z" fill="white"/>
</svg>
