<svg width="22" height="17" viewBox="0 0 22 17" fill="none" xmlns="http://www.w3.org/2000/svg">
<g clip-path="url(#clip0_3282_450)">
<path opacity="0.5" fill-rule="evenodd" clip-rule="evenodd" d="M12.5502 14.7332C12.5502 14.8285 12.6304 14.9059 12.7294 14.9059H17.3585C17.4575 14.9059 17.5378 14.9832 17.5378 15.0785V16.0025C17.5378 16.5099 17.9653 16.9228 18.4906 16.9228H19.7347C20.26 16.9228 20.6874 16.5099 20.6874 16.0025V11.6109C20.6874 10.9819 20.4862 9.99682 20.2389 9.41505L20.1309 9.16085C20.1101 9.11188 20.1474 9.05824 20.2024 9.05824C20.7277 9.05824 21.1551 8.64532 21.1551 8.13791V7.62275C21.1552 7.18811 20.8448 6.87251 20.4173 6.87251C20.3393 6.87251 20.2592 6.88335 20.1791 6.90456L19.4278 7.10449C19.3403 7.12777 19.2486 7.08439 19.2142 7.00344L18.3351 4.93464C18.0689 4.30842 17.2822 3.79883 16.5814 3.79883H12.7294C12.6304 3.79883 12.5502 3.87616 12.5502 3.97151V4.36081C12.5502 4.4562 12.6304 4.5335 12.7294 4.5335H16.1175C16.5367 4.5335 17.0098 4.83998 17.1691 5.21467L18.5902 8.55839C18.7493 8.93298 18.5366 9.23953 18.1175 9.23953H12.7294C12.6304 9.23953 12.5502 9.31686 12.5502 9.41221V14.7332ZM18.473 13.1559C18.6824 13.1559 18.854 12.9903 18.854 12.7878V11.5364C18.854 11.334 18.6824 11.1683 18.473 11.1683H15.7734C15.5639 11.1683 15.3923 11.334 15.3923 11.5364V12.7878C15.3923 12.9902 15.5639 13.1559 15.7734 13.1559H18.473Z" fill="white"/>
<path fill-rule="evenodd" clip-rule="evenodd" d="M11.115 7.91487C11.115 7.81948 11.0347 7.74219 10.9357 7.74219H8.02576C7.92415 7.74219 7.84334 7.82432 7.84334 7.92219C7.84334 8.96576 7.45848 9.95504 6.76747 10.7314C6.739 10.7634 6.7229 10.804 6.7229 10.8461V16.7511C6.7229 16.8465 6.80318 16.9238 6.90217 16.9238H10.9357C11.0347 16.9238 11.115 16.8465 11.115 16.7511V7.91487ZM9.52399 12.4304C9.52399 12.5257 9.44372 12.603 9.34472 12.603H8.58283C8.48383 12.603 8.40356 12.5257 8.40356 12.4304V10.6153C8.40356 10.52 8.48383 10.4427 8.58283 10.4427H9.34472C9.44372 10.4427 9.52399 10.52 9.52399 10.6153V12.4304Z" fill="white"/>
<path d="M9.54225 3.99716C9.52981 3.97319 9.52335 3.94677 9.52335 3.92001V1.79297C9.52335 1.6976 9.6036 1.62029 9.70262 1.62029H9.9043C10.0033 1.62029 10.0836 1.54298 10.0836 1.4476V0.712779C10.0836 0.617409 10.0033 0.540095 9.9043 0.540095H9.70262C9.6036 0.540095 9.52335 0.462784 9.52335 0.36741V0.172684C9.52335 0.0773136 9.44308 0 9.34408 0H8.58219C8.48316 0 8.40292 0.0773136 8.40292 0.172684V0.36741C8.40292 0.462784 8.32264 0.540095 8.22365 0.540095H8.02197C7.92294 0.540095 7.8427 0.617409 7.8427 0.712779V1.4476C7.8427 1.54298 7.92294 1.62029 8.02197 1.62029H8.22365C8.32264 1.62029 8.40292 1.6976 8.40292 1.79297V3.91997C8.40292 3.94674 8.39643 3.97316 8.38402 3.99713L7.39635 5.90156C7.37014 5.95212 7.37151 6.01173 7.3984 6.06198C7.47857 6.21191 7.55038 6.37109 7.61173 6.54046C7.63758 6.61185 7.70653 6.66116 7.78501 6.66116H10.6339C10.7672 6.66116 10.8539 6.52612 10.7943 6.41132L9.54225 3.99716Z" fill="white"/>
<path d="M3.97789 4.40957C3.9415 4.37776 3.92153 4.33238 3.92153 4.28506V2.51368C3.92153 2.41831 4.00181 2.34099 4.1008 2.34099H4.30248C4.40147 2.34099 4.48175 2.26368 4.48175 2.16831V1.43349C4.48175 1.33811 4.40147 1.2608 4.30248 1.2608H4.1008C4.00181 1.2608 3.92153 1.18349 3.92153 1.08812V0.893388C3.92153 0.798017 3.84125 0.720703 3.74226 0.720703H2.98036C2.88135 0.720703 2.80109 0.798017 2.80109 0.893388V1.08812C2.80109 1.18349 2.72083 1.2608 2.62182 1.2608H2.42014C2.32114 1.2608 2.24087 1.33811 2.24087 1.43349V2.16831C2.24087 2.26368 2.32114 2.34099 2.42014 2.34099H2.62182C2.72083 2.34099 2.80109 2.41831 2.80109 2.51368V4.2851C2.80109 4.33241 2.78111 4.37783 2.74471 4.4096C2.52023 4.60553 2.25272 4.78681 1.9741 4.97559C1.04836 5.60285 0 6.31317 0 7.92197C0 8.44952 0.130832 8.94747 0.362842 9.38761C0.41573 9.48794 0.554156 9.50445 0.63672 9.42488L4.8941 5.32037C4.97209 5.24519 4.96169 5.12072 4.87159 5.05938C4.8319 5.0323 4.79231 5.0055 4.75295 4.9788L4.7523 4.97836L4.75191 4.97811L4.75058 4.97722L4.75001 4.97684C4.47085 4.78761 4.2028 4.60594 3.97789 4.40957Z" fill="white"/>
<path d="M1.12378 10.9735C1.12378 10.8781 1.20404 10.8008 1.30305 10.8008H5.42626C5.52525 10.8008 5.60553 10.8781 5.60553 10.9735V12.2484C5.60553 12.3438 5.52525 12.4211 5.42626 12.4211H1.30305C1.20404 12.4211 1.12378 12.3438 1.12378 12.2484V10.9735Z" fill="white"/>
<path d="M1.30305 13.502C1.20404 13.502 1.12378 13.5793 1.12378 13.6746V16.7499C1.12378 16.8452 1.20404 16.9226 1.30305 16.9226H2.62516C2.72417 16.9226 2.80443 16.8452 2.80443 16.7499V14.9422C2.80443 14.6439 3.05527 14.4021 3.36465 14.4021C3.67404 14.4021 3.92487 14.6439 3.92487 14.9422V16.7499C3.92487 16.8453 4.00515 16.9226 4.10414 16.9226H5.42626C5.52525 16.9226 5.60553 16.8453 5.60553 16.7499V13.6746C5.60553 13.5793 5.52525 13.502 5.42626 13.502H1.30305Z" fill="white"/>
<path d="M2.34455 9.72141C2.18487 9.72141 2.10487 9.5355 2.21773 9.42667L5.76845 6.00351C5.84009 5.93447 5.95726 5.93596 6.02259 6.01059C6.43197 6.47815 6.72192 7.07536 6.72192 7.9211C6.72192 8.55434 6.53347 9.14499 6.2077 9.64404C6.17586 9.69285 6.11968 9.72141 6.05984 9.72141H2.34455Z" fill="white"/>
</g>
<defs>
<clipPath id="clip0_3282_450">
<rect width="21.1538" height="16.9231" fill="white"/>
</clipPath>
</defs>
</svg>
