<svg width="201" height="53" viewBox="0 0 201 53" fill="none" xmlns="http://www.w3.org/2000/svg">
<path fill-rule="evenodd" clip-rule="evenodd" d="M0 2.97544C0 1.33215 1.33213 0 2.97544 0H52.1632C53.8064 0 55.1386 1.33215 55.1386 2.97544V50.0246C55.1386 51.6679 53.8064 53 52.1632 53H2.97544C1.33213 53 0 51.6679 0 50.0246V2.97544ZM44.8175 14.5053C44.8175 15.2242 44.2347 15.807 43.5158 15.807C42.7969 15.807 42.214 15.2242 42.214 14.5053C42.214 13.7863 42.7969 13.2035 43.5158 13.2035C44.2347 13.2035 44.8175 13.7863 44.8175 14.5053ZM15.4224 14.0282C15.7034 14.1627 16.1351 14.4465 16.382 14.6589C17.1834 15.3487 17.4825 15.387 18.4295 14.9208C21.5069 13.4063 25.1292 13.6863 27.6882 15.6364C28.8031 16.4859 29.061 16.4953 30.1611 15.7256C34.493 12.695 40.7343 13.6196 42.7356 17.5885C43.7836 19.6669 43.8871 20.6066 43.8875 28.0401L43.8877 34.1438L43.6556 34.8763C42.7661 37.6835 39.0921 37.8159 38.0238 35.0793C37.8139 34.5416 37.8104 34.4562 37.757 28.5284C37.7077 23.0611 37.701 21.8688 37.1421 21.0566C36.9814 20.8231 36.775 20.621 36.5088 20.3577C34.6096 18.4793 32.0469 19.403 31.045 22.3271L30.7772 23.1084L30.7264 28.8214C30.6805 33.9907 30.6894 34.8717 30.2876 35.4827C30.1867 35.6361 30.06 35.7724 29.9 35.9554C28.3366 37.7428 25.5733 37.2694 24.7401 35.0716C24.6387 34.8041 24.5974 33.4982 24.5499 29.0656C24.4955 23.9834 24.4785 23.9119 24.3118 23.2113C24.304 23.1786 24.2958 23.1444 24.2874 23.1084C23.3055 18.9267 19.2325 18.9293 18.0386 23.1124C18.0213 23.1731 17.9998 23.2311 17.9754 23.2971C17.8003 23.7697 17.4733 24.6525 17.4296 29.8957C17.3788 35.9758 17.3825 36.8843 17.0645 37.6611C16.9958 37.8288 16.9121 37.9905 16.8097 38.1967C15.4777 40.8773 11.9141 40.0199 11.3571 36.8847C11.2201 36.1143 11.2134 17.3492 11.3498 16.6101C11.757 14.4027 13.6704 13.1898 15.4224 14.0282Z" fill="white"/>
<path d="M99.517 2.79714C97.9837 2.99229 95.8556 3.79147 94.4989 4.67429C92.3336 6.0868 90.7632 8.1498 89.964 10.6403C89.3785 12.4431 89.3785 14.7384 89.964 16.6341C90.8189 19.4313 92.789 21.7266 95.549 23.1577C96.4597 23.6316 97.296 23.929 98.5877 24.2357C99.5077 24.4494 99.7865 24.4773 101.422 24.4773C103.048 24.4773 103.346 24.4494 104.256 24.2357C105.446 23.9569 106.124 23.7245 107.091 23.2599C109.934 21.9032 112.007 19.5614 112.945 16.6434C114.516 11.7368 112.062 6.23548 107.276 3.97733C105.883 3.32683 104.6 2.92724 103.374 2.78785C102.444 2.67634 100.428 2.68563 99.517 2.79714ZM103.374 8.24273C105.018 8.8003 106.338 10.1849 106.905 11.9413C107.221 12.8891 107.202 14.4503 106.868 15.4075C106.542 16.3646 106.078 17.0709 105.344 17.7586C104.228 18.8179 103.141 19.2361 101.571 19.2361C100.483 19.2361 99.6564 19.0596 98.8665 18.6507C98.1324 18.2697 96.9057 17.0523 96.5247 16.3089C95.391 14.1344 95.6977 11.5324 97.3053 9.75746C98.1974 8.77242 99.3126 8.15909 100.502 7.99182C101.403 7.87102 102.574 7.97324 103.374 8.24273Z" fill="white"/>
<path d="M153.229 2.79715C151.603 2.9923 149.484 3.81936 147.84 4.91591C146.548 5.77085 145.098 7.44355 144.318 8.99545C143.36 10.8819 143.035 13.1308 143.388 15.3703C143.732 17.5448 144.671 19.3569 146.306 21.0111C147.96 22.6745 149.875 23.6967 152.44 24.2635C153.276 24.4587 153.666 24.4866 155.134 24.4866C156.593 24.4866 157.002 24.4494 157.829 24.2728C161.909 23.3621 164.985 20.8995 166.379 17.4054C166.964 15.9465 167.076 15.3424 167.076 13.5675C167.076 12.1643 167.039 11.8298 166.862 11.1514C166.016 8.01971 164.028 5.52923 161.221 4.11673C159.697 3.34542 158.536 2.97371 157.086 2.79715C156.185 2.67634 154.177 2.68563 153.229 2.79715ZM156.129 8.00112C158.173 8.2799 160.041 9.9712 160.673 12.1271C160.924 13.0007 160.887 14.441 160.589 15.361C160.171 16.662 159.075 18.0002 157.941 18.6135C156.826 19.2175 155.06 19.422 153.787 19.0967C152.068 18.66 150.562 17.2939 149.865 15.5469C149.633 14.9614 149.615 14.8127 149.615 13.5675C149.615 12.3223 149.633 12.1736 149.865 11.5789C150.284 10.5288 151.129 9.4508 152.031 8.82818C153.09 8.08476 154.577 7.78739 156.129 8.00112Z" fill="white"/>
<path d="M64.2229 3.2339C64.0742 3.39188 64.0649 5.12034 64.0649 26.2336V49.0567L64.2694 49.1961C64.4459 49.3262 64.8641 49.3448 67.0014 49.3448C69.3246 49.3448 69.5291 49.3355 69.6685 49.1775C69.8079 49.0289 69.8265 48.6943 69.8265 46.4362C69.8265 43.8899 69.8265 43.8714 70.0309 43.732C70.2075 43.6112 70.5792 43.5833 72.1961 43.5833C74.3706 43.5833 75.4672 43.4532 76.7031 43.0629C78.1156 42.6261 79.0728 42.0593 79.9742 41.1393C81.3124 39.7825 81.8142 38.4908 81.8142 36.4278C81.8142 35.229 81.7027 34.5321 81.3774 33.7329C80.5689 31.7628 78.7847 30.341 76.2571 29.6719C75.4393 29.4582 75.1327 29.4303 72.8652 29.3746C70.542 29.3188 70.3562 29.3095 70.2353 29.1423C70.1238 28.9843 70.1052 27.7112 70.0867 21.0575C70.0774 13.0657 70.0774 12.8241 70.1517 12.7497C70.2818 12.6196 70.6535 12.8891 70.9323 13.3073C71.239 13.7905 72.9303 16.2531 74.6587 18.7529C75.4207 19.8494 75.588 20.026 75.7924 20.026C76.0155 20.026 76.285 19.6729 78.2829 16.7735C79.5096 14.98 80.6526 13.3352 80.8199 13.1122C81.1358 12.6754 81.396 12.471 81.4889 12.5639C81.5261 12.6011 81.5447 15.1473 81.5354 18.2418C81.5261 23.167 81.5447 23.8639 81.6655 23.9755C81.777 24.0591 82.474 24.087 84.5742 24.0777C87.2598 24.0684 87.3527 24.0591 87.5107 23.8732C87.6594 23.6874 87.6687 23.0555 87.6687 13.5768C87.6687 4.99954 87.6501 3.44764 87.5386 3.28966C87.4085 3.12239 87.2505 3.1131 84.4905 3.08522C82.697 3.06663 81.4704 3.09451 81.3217 3.15027C81.0708 3.25249 80.6061 3.84723 79.8255 5.08317C79.5746 5.48276 78.9427 6.45851 78.4223 7.2484C77.9019 8.03828 77.2235 9.08837 76.9076 9.5716C76.127 10.7982 76.0619 10.8726 75.8761 10.8726C75.7831 10.8726 75.6438 10.7982 75.5694 10.7053C75.4486 10.5659 73.3113 7.30415 71.3784 4.30258C70.9881 3.69854 70.6721 3.30824 70.4863 3.21532C70.2539 3.08522 69.7521 3.06663 67.2895 3.06663C64.5853 3.06663 64.3623 3.07592 64.2229 3.2339ZM73.1254 34.0024C74.9747 34.1882 75.9597 35.1082 75.9597 36.6601C75.9597 37.2363 75.9225 37.385 75.6531 37.8217C75.3092 38.4072 74.7052 38.8625 73.9803 39.0763C73.6644 39.1785 72.9396 39.2435 71.8988 39.2807C70.5048 39.3272 70.2725 39.3179 70.0681 39.1785L69.8265 39.0298V36.6137C69.8265 33.705 69.715 33.9188 71.2668 33.9188C71.8244 33.9188 72.6701 33.9652 73.1254 34.0024Z" fill="white"/>
<path d="M113.958 3.53128L113.967 5.64075C113.977 7.32275 114.004 7.80597 114.116 7.96395L114.246 8.17768H117.266C120.166 8.17768 120.296 8.18698 120.472 8.36354C120.658 8.5494 120.658 8.6702 120.658 16.2067C120.658 22.4514 120.677 23.8825 120.779 23.9662C120.863 24.0312 121.81 24.0684 123.688 24.0684C126.448 24.0777 126.466 24.0777 126.633 23.8732C126.791 23.6781 126.801 23.2506 126.791 16.1045C126.773 9.02333 126.782 8.52152 126.94 8.35425C127.089 8.18698 127.256 8.17768 130.09 8.17768C132.46 8.17768 133.11 8.14981 133.25 8.04758C133.408 7.93607 133.417 7.7688 133.408 5.66862C133.399 3.74501 133.371 3.38259 133.25 3.26179C133.12 3.13169 132.125 3.1131 123.762 3.08522L114.423 3.06664L113.958 3.53128Z" fill="white"/>
<path d="M135.359 3.21532L135.155 3.35471V14.5433C135.155 24.5888 135.174 25.7411 135.304 25.8712C135.424 26.0013 135.805 26.0199 138.073 26.0199C140.201 26.0199 140.731 25.992 140.814 25.8898C140.889 25.7968 140.916 22.8231 140.916 14.534C140.916 4.04238 140.907 3.28966 140.758 3.18744C140.647 3.09451 139.95 3.06664 138.082 3.06664C135.954 3.06664 135.536 3.08522 135.359 3.21532Z" fill="white"/>
<path d="M169.139 3.23391C168.99 3.39189 168.981 4.24682 168.981 13.6233C168.981 21.4478 169.009 23.8732 169.092 23.9569C169.25 24.1149 174.752 24.1149 174.91 23.9569C174.993 23.8732 175.021 22.5258 175.021 18.4741C175.021 13.5025 175.03 13.0936 175.179 13.0378C175.291 12.9914 175.421 13.075 175.616 13.3352C176.136 13.9764 179.779 18.4277 180.699 19.5335C181.201 20.1375 181.656 20.7137 181.712 20.8159C181.786 20.9553 181.814 22.8975 181.805 27.4138C181.805 33.7236 181.805 33.8258 181.991 34.0117C182.167 34.1883 182.288 34.1975 185.039 34.1975C187.724 34.1975 187.92 34.2068 188.068 34.3741C188.208 34.5321 188.226 35.1454 188.245 41.8084C188.263 48.8895 188.273 49.0846 188.44 49.2147C188.719 49.4192 193.57 49.4099 193.867 49.1961L194.071 49.0568V41.7805C194.071 34.848 194.081 34.4949 194.239 34.3555C194.387 34.2161 194.74 34.1975 197.231 34.1975C199.192 34.1975 200.149 34.1604 200.363 34.086L200.669 33.9745V31.7721C200.669 29.579 200.669 29.5697 200.465 29.4954C200.344 29.4489 197.956 29.3932 195.159 29.3653C190.215 29.3188 190.057 29.3095 189.927 29.133C189.806 28.975 189.797 27.1908 189.797 16.1695L189.806 3.39189L189.611 3.23391C189.425 3.08522 189.146 3.06664 186.851 3.06664C184.342 3.06664 184.017 3.10381 183.821 3.38259C183.784 3.43835 183.756 5.76155 183.766 8.5401C183.766 11.7275 183.738 13.6233 183.682 13.679C183.524 13.837 183.217 13.6697 182.994 13.3073C182.827 13.0285 178.459 7.65729 175.421 3.97733C175.058 3.54057 174.724 3.23391 174.538 3.16886C174.361 3.10381 173.32 3.06664 171.769 3.06664C169.483 3.06664 169.278 3.07593 169.139 3.23391Z" fill="white"/>
<path d="M135.545 27.1443C135.155 27.293 135.164 27.1722 135.136 35.2755L135.108 43.0722L134.904 43.4532C134.635 43.955 133.965 44.5404 133.501 44.6798C132.414 45.0051 131.178 44.5776 130.062 43.4996C129.561 43.0071 129.273 42.9978 128.827 43.4532C128.659 43.639 127.916 44.3081 127.191 44.9493C125.565 46.3711 125.574 46.3525 126.503 47.2354C128.297 48.9266 130.434 49.7165 133.157 49.7165C137.051 49.6979 140.015 47.6349 140.768 44.401C140.972 43.5182 141 27.4603 140.805 27.2558C140.693 27.1536 140.164 27.1257 138.184 27.1071C136.818 27.0978 135.629 27.1164 135.545 27.1443Z" fill="white"/>
<path d="M113.27 28.9657C108.838 29.4861 105.706 31.5398 103.94 35.0618C102.881 37.1712 102.63 39.7732 103.281 42.1057C104.331 45.9158 107.908 48.9545 112.109 49.6236C112.889 49.7444 115.603 49.7444 116.383 49.6236C121.076 48.8802 124.84 45.3489 125.537 41.037C125.983 38.2771 125.305 35.5264 123.623 33.259C123.149 32.6178 122.061 31.5398 121.615 31.261C121.467 31.1681 121.271 31.0194 121.169 30.9358C120.89 30.6941 119.218 29.8764 118.428 29.6069C117.118 29.1515 114.478 28.817 113.27 28.9657ZM115.947 34.2068C117.22 34.6343 118.261 35.4799 118.948 36.6323C119.348 37.3199 119.729 38.6581 119.729 39.4015C119.729 40.1356 119.348 41.4831 118.958 42.1429C118.595 42.7562 117.852 43.5368 117.22 43.9643C116.495 44.4382 115.501 44.6984 114.358 44.6984C112.629 44.6984 111.718 44.3267 110.566 43.1744C109.609 42.2079 109.172 41.3344 109.014 40.1263C108.68 37.4686 110.12 35.0339 112.499 34.244C113.428 33.9373 115.082 33.9188 115.947 34.2068Z" fill="white"/>
<path d="M171.583 28.9657C168.609 29.3095 166.295 30.3782 164.464 32.2646C163.238 33.5378 162.466 34.8573 161.974 36.5393C161.333 38.7603 161.472 41.3437 162.346 43.3974C163.005 44.94 164.269 46.5477 165.663 47.6071C166.899 48.5642 168.786 49.3634 170.375 49.6143C171.127 49.7351 173.841 49.7444 174.659 49.6236C176.136 49.4099 177.837 48.7687 179.101 47.9509C179.742 47.5327 181.582 45.795 181.665 45.5255C181.749 45.2746 181.573 45.0237 181.136 44.7635C180.913 44.6334 180.058 44.0665 179.221 43.4996C178.255 42.8399 177.623 42.4681 177.465 42.4681C177.298 42.4681 177.019 42.6633 176.517 43.1465C175.318 44.2895 174.296 44.6984 172.642 44.6984C171.239 44.6984 170.319 44.3639 169.334 43.4996C168.832 43.0629 168.182 42.0407 167.893 41.2601C167.68 40.6467 167.643 40.4237 167.643 39.4015C167.633 38.3421 167.661 38.1749 167.903 37.4965C168.46 35.9818 169.38 34.941 170.7 34.3276C171.192 34.1046 171.397 34.0674 172.428 34.0303C173.506 33.9931 173.646 34.0117 174.324 34.244C175.216 34.56 175.913 34.9874 176.666 35.6937C176.982 36.0003 177.27 36.242 177.316 36.242C177.465 36.242 180.123 34.3091 180.903 33.6307C181.545 33.0824 181.507 32.943 180.532 31.9766C178.952 30.4154 177.335 29.5697 175.142 29.1794C174.12 28.9936 172.308 28.8821 171.583 28.9657Z" fill="white"/>
<path d="M83.6077 29.3467C83.4962 29.3653 83.3661 29.4303 83.3104 29.4954C83.2267 29.5883 83.171 40.6003 83.2081 48.8523C83.2081 49.3262 83.3011 49.3448 86.0703 49.3448C88.2541 49.3448 88.6816 49.3262 88.8582 49.1961C89.0626 49.0567 89.0626 49.0382 89.0626 46.334C89.0626 44.1966 89.0905 43.5833 89.1927 43.4439C89.2949 43.3045 89.4622 43.2673 90.2335 43.258C90.8097 43.2394 91.265 43.2766 91.4416 43.351C91.6367 43.4346 91.9248 43.7413 92.3244 44.3174C92.6496 44.7821 93.3094 45.7206 93.7926 46.399C94.2666 47.0681 94.8613 47.923 95.1122 48.2854C95.8835 49.4285 95.5676 49.3448 99.1453 49.3448C101.719 49.3448 102.258 49.3262 102.342 49.2147C102.491 49.0382 102.454 48.9824 101.543 47.7558C101.143 47.2168 100.465 46.2782 100.028 45.6742C99.5914 45.0794 98.9873 44.2524 98.6807 43.8435C98.374 43.4346 98.0395 42.9514 97.9372 42.7748L97.7514 42.4589L98.0023 42.2544C98.1324 42.1429 98.5041 41.9013 98.8201 41.7247C100.056 41.0278 101.106 39.8011 101.589 38.4536C101.822 37.8217 101.831 37.6638 101.831 36.242C101.831 34.8016 101.822 34.6622 101.571 33.9652C101.153 32.7572 100.521 31.8558 99.6192 31.1495C98.532 30.3039 97.7049 29.9321 96.0973 29.5976C95.0565 29.3746 94.9542 29.3746 89.425 29.3467C86.3398 29.3281 83.7192 29.3281 83.6077 29.3467ZM94.3223 34.4206C95.0193 34.6343 95.5955 35.1175 95.8278 35.6751C96.376 36.9296 95.8092 38.1284 94.4153 38.686C93.9878 38.8625 93.6997 38.8811 91.6553 38.9183C89.6202 38.9462 89.3507 38.9369 89.2206 38.7975C89.0812 38.6674 89.0626 38.3793 89.0626 36.5951C89.0626 34.7644 89.0812 34.5135 89.2299 34.3555C89.3786 34.1883 89.4901 34.179 91.6181 34.2254C93.2908 34.2626 93.9692 34.3091 94.3223 34.4206Z" fill="white"/>
<path d="M143.611 29.3839C143.518 29.421 143.416 29.4861 143.388 29.5418C143.351 29.5883 143.333 33.9931 143.323 39.3179C143.323 48.2669 143.342 49.0103 143.481 49.1683C143.63 49.3355 143.955 49.3448 151.882 49.3448C159.753 49.3448 160.134 49.3355 160.273 49.1775C160.413 49.0289 160.431 48.7315 160.431 46.9566C160.431 45.098 160.413 44.9029 160.264 44.7635C160.106 44.6241 159.586 44.6055 154.688 44.6055C149.447 44.6055 149.28 44.5962 149.187 44.4289C149.141 44.3267 149.094 43.6855 149.094 42.9885C149.094 41.7991 149.103 41.7247 149.308 41.5853C149.484 41.4552 150.042 41.4366 154.066 41.4459C156.575 41.4552 158.694 41.4552 158.777 41.4459C158.861 41.4459 159 41.3809 159.075 41.2972C159.279 41.0928 159.298 37.5801 159.093 37.3013C158.963 37.1341 158.787 37.1248 154.14 37.0969C149.763 37.0783 149.317 37.0597 149.215 36.9203C149.131 36.8181 149.094 36.3721 149.094 35.5357C149.094 34.3648 149.103 34.2905 149.308 34.1511C149.484 34.021 150.098 34.0024 154.577 34.0117C157.365 34.0117 159.734 34.021 159.846 34.0117C160.311 34.0024 160.338 33.863 160.338 31.8C160.338 30.7406 160.311 29.7835 160.283 29.6626C160.246 29.5511 160.134 29.4303 160.022 29.4025C159.725 29.3374 143.816 29.3095 143.611 29.3839Z" fill="white"/>
</svg>
