<svg width="37" height="37" viewBox="0 0 37 37" fill="none" xmlns="http://www.w3.org/2000/svg">
<path d="M14.0299 0.194031V3.23751H7.94294C5.44039 3.23751 3.37771 5.30019 3.37771 7.80274V13.8897H0.334229V23.0202H9.46468V13.8897H6.4212V7.80274C6.4212 6.94082 7.08101 6.281 7.94294 6.281H14.0299V9.32448H23.1604V0.194031H14.0299ZM17.0734 3.23751H20.1169V6.281H17.0734V3.23751ZM24.6821 3.23751V6.281H29.2473C30.1092 6.281 30.7691 6.94082 30.7691 7.80274V13.8897H27.7256V23.0202H36.856V13.8897H33.8125V7.80274C33.8125 5.30019 31.7499 3.23751 29.2473 3.23751H24.6821ZM3.37771 16.9332H6.4212V19.9767H3.37771V16.9332ZM30.7691 16.9332H33.8125V19.9767H30.7691V16.9332ZM3.37771 24.5419V29.1071C3.37771 31.6097 5.44039 33.6724 7.94294 33.6724H14.0299V36.7158H23.1604V27.5854H14.0299V30.6289H7.94294C7.08101 30.6289 6.4212 29.969 6.4212 29.1071V24.5419H3.37771ZM30.7691 24.5419V29.1071C30.7691 29.969 30.1092 30.6289 29.2473 30.6289H24.6821V33.6724H29.2473C31.7499 33.6724 33.8125 31.6097 33.8125 29.1071V24.5419H30.7691ZM17.0734 30.6289H20.1169V33.6724H17.0734V30.6289Z" fill="white"/>
</svg>
