<svg width="307" height="216" viewBox="0 0 307 216" fill="none" xmlns="http://www.w3.org/2000/svg">
<path d="M218.574 -18.6982C197.104 -22.3081 175.249 -23.0943 153.568 -21.0368C152.085 -15.2147 150.912 -9.31881 150.054 -3.37391C127.068 -0.774478 104.597 5.24641 83.3911 14.4882C79.6738 9.77007 75.7101 5.25068 71.5163 0.948804C51.7052 10.0409 33.162 21.6676 16.3548 35.5353C-6.62755 101.821 -2.27397 159.29 17.3291 211.839C43.9874 222.281 72.2484 228.081 100.884 228.989C104.704 219.389 107.708 209.486 109.862 199.384C100.388 198.483 91.0126 196.752 81.8449 194.209C83.5249 192.144 85.1468 190.044 86.7123 188.009C112.648 192.643 139.296 191.509 164.757 184.686C190.217 177.864 213.862 165.523 234.006 148.542C236.433 149.629 238.887 150.637 241.322 151.478C234.64 158.275 227.374 164.474 219.606 170.003C226.516 177.671 234.067 184.739 242.178 191.13C266.554 176.052 288.149 156.898 306.015 134.51C295.303 70.3489 264.405 20.5318 218.574 -18.6982ZM104.417 152.956C90.0584 156.803 74.7135 146.985 70.4292 130.995C66.1448 115.006 74.0817 98.8263 88.8066 94.8808C103.531 90.9353 118.815 100.893 122.848 116.95C126.88 133.007 119.05 149.035 104.417 152.956ZM201.147 127.037C186.766 130.891 171.467 121.06 167.183 105.07C162.898 89.0808 170.835 72.9014 185.583 68.9497C200.331 64.9981 215.523 74.9801 219.555 91.037C223.588 107.094 215.781 123.116 201.147 127.037Z" fill="#4D59DF"/>
</svg>
