<svg width="84" height="64" viewBox="0 0 84 64" fill="none" xmlns="http://www.w3.org/2000/svg">
<path d="M71.1293 5.32975C65.6125 2.80402 59.7885 1.01218 53.806 0C52.9873 1.46346 52.2466 2.96916 51.5869 4.51081C45.2144 3.55054 38.734 3.55054 32.3615 4.51081C31.7014 2.96932 30.9607 1.46363 30.1424 0C24.1561 1.02072 18.3282 2.81682 12.8059 5.34296C1.84256 21.5634 -1.12942 37.3809 0.356574 52.9739C6.77696 57.7176 13.9632 61.3252 21.6029 63.64C23.3232 61.3263 24.8454 58.8718 26.1534 56.3025C23.669 55.3746 21.2712 54.2299 18.9876 52.8814C19.5886 52.4455 20.1764 51.9964 20.7444 51.5606C27.389 54.6854 34.6413 56.3056 41.9841 56.3056C49.3269 56.3056 56.5792 54.6854 63.2239 51.5606C63.7984 52.0295 64.3862 52.4786 64.9806 52.8814C62.6926 54.232 60.2904 55.379 57.8016 56.3091C59.108 58.8772 60.6303 61.3297 62.3521 63.64C69.9983 61.3345 77.1901 57.7286 83.6116 52.9805C85.3552 34.8977 80.6331 19.2254 71.1293 5.32975ZM28.0356 43.3843C23.8947 43.3843 20.4736 39.6264 20.4736 35.0033C20.4736 30.3802 23.7758 26.5893 28.0224 26.5893C32.269 26.5893 35.6637 30.3802 35.591 35.0033C35.5184 39.6264 32.2558 43.3843 28.0356 43.3843ZM55.9326 43.3843C51.785 43.3843 48.3772 39.6264 48.3772 35.0033C48.3772 30.3802 51.6794 26.5893 55.9326 26.5893C60.1858 26.5893 63.5541 30.3802 63.4814 35.0033C63.4088 39.6264 60.1528 43.3843 55.9326 43.3843Z" fill="white"/>
</svg>
