<svg width="112" height="128" viewBox="0 0 112 128" fill="none" xmlns="http://www.w3.org/2000/svg">
<path d="M111.01 37.7519C104.376 28.4354 96.5495 20.0248 87.7309 12.7349C85.0175 14.347 82.3916 16.1015 79.8642 17.9908C70.3598 10.4177 59.7761 4.30719 48.4654 -0.137266C48.8372 -3.2708 49.0437 -6.42207 49.0838 -9.57801C38.347 -13.5598 27.1397 -16.1292 15.7447 -17.2211C-17.4163 -1.13483 -37.147 21.8304 -49.3858 48.6333C-43.3617 62.4149 -35.0183 75.068 -24.7183 86.0426C-19.7327 83.8956 -14.9381 81.3324 -10.3854 78.3802C-13.5701 74.526 -16.4096 70.4002 -18.8708 66.0503C-17.4793 65.9069 -16.097 65.7295 -14.7594 65.555C-6.84635 76.9109 3.47423 86.3886 15.4664 93.3123C27.4585 100.236 40.8268 104.435 54.6178 105.61C55.1152 106.916 55.6527 108.201 56.2446 109.418C51.2376 109.461 46.2355 109.064 41.2961 108.233C41.0143 113.648 41.1939 119.079 41.8329 124.466C56.4891 127.92 71.6261 128.827 86.5794 127.147C106.434 99.3334 113.463 69.3499 111.01 37.7519ZM4.83867 59.1106C-1.92431 55.206 -3.97716 45.8584 0.370999 38.3271C4.71915 30.7959 13.6778 27.734 20.6133 31.7383C27.5489 35.7425 29.5275 45.119 25.0607 52.5817C20.5939 60.0445 11.7311 63.0899 4.83867 59.1106ZM50.3998 85.4153C43.626 81.5045 41.5947 72.1693 45.9429 64.6381C50.291 57.1069 59.2497 54.045 66.196 58.0554C73.1423 62.0659 75.0778 71.4175 70.611 78.8802C66.1442 86.343 57.2922 89.3946 50.3998 85.4153Z" fill="#4D59DF"/>
</svg>
