<svg width="139" height="173" viewBox="0 0 139 173" fill="none" xmlns="http://www.w3.org/2000/svg">
<path d="M169.406 3.58351C152.73 0.779562 135.754 0.168866 118.913 1.76702C117.762 6.28928 116.851 10.8688 116.184 15.4864C98.3298 17.5054 80.8764 22.1821 64.4048 29.3605C61.5175 25.6957 58.4388 22.1854 55.1813 18.844C39.7933 25.9061 25.3903 34.9369 12.3355 45.7085C-5.51564 97.1951 -2.13407 141.833 13.0923 182.65C33.7987 190.76 55.7499 195.265 77.9919 195.971C80.9596 188.514 83.2924 180.821 84.9657 172.975C77.6068 172.275 70.3247 170.93 63.2039 168.956C64.5087 167.351 65.7685 165.721 66.9845 164.14C87.1296 167.739 107.828 166.858 127.604 161.559C147.38 156.26 165.746 146.674 181.393 133.484C183.278 134.329 185.184 135.112 187.075 135.765C181.885 141.044 176.241 145.859 170.207 150.154C175.574 156.11 181.44 161.6 187.74 166.564C206.674 154.852 223.447 139.975 237.324 122.586C229.004 72.7493 205.004 34.0547 169.406 3.58351ZM80.7363 136.913C69.5836 139.901 57.6647 132.275 54.3369 119.855C51.0091 107.436 57.1739 94.8687 68.6112 91.8041C80.0485 88.7395 91.92 96.4738 95.0521 108.946C98.1843 121.418 92.1024 133.868 80.7363 136.913ZM155.87 116.781C144.7 119.774 132.816 112.138 129.488 99.7186C126.161 87.299 132.325 74.7319 143.781 71.6626C155.236 68.5932 167.036 76.3465 170.168 88.8185C173.3 101.291 167.236 113.736 155.87 116.781Z" fill="#4D59DF"/>
</svg>
