<svg width="222" height="200" viewBox="0 0 222 200" fill="none" xmlns="http://www.w3.org/2000/svg">
<path d="M220.453 75.9444C211.359 63.1741 200.631 51.6455 188.543 41.653C184.824 43.8628 181.224 46.2676 177.76 48.8574C164.732 38.4768 150.225 30.1009 134.721 24.0089C135.231 19.7137 135.514 15.3941 135.569 11.0682C120.851 5.61028 105.489 2.08843 89.87 0.591683C44.4156 22.6415 17.3703 54.1204 0.594274 90.8597C8.85164 109.75 20.2882 127.094 34.4066 142.137C41.2404 139.194 47.8124 135.681 54.053 131.634C49.6876 126.351 45.7955 120.696 42.4218 114.734C44.3292 114.537 46.224 114.294 48.0575 114.055C58.9039 129.62 73.0507 142.612 89.4885 152.102C105.926 161.593 124.251 167.348 143.154 168.959C143.836 170.748 144.573 172.511 145.384 174.179C138.521 174.238 131.664 173.694 124.894 172.554C124.508 179.977 124.754 187.421 125.63 194.805C145.719 199.54 166.468 200.783 186.965 198.48C214.18 160.355 223.814 119.256 220.453 75.9444ZM74.9209 105.221C65.6508 99.869 62.8369 87.056 68.797 76.7328C74.7571 66.4096 87.0369 62.2126 96.5436 67.7013C106.05 73.19 108.762 86.0426 102.64 96.2719C96.517 106.501 84.3685 110.676 74.9209 105.221ZM137.372 141.278C128.088 135.917 125.303 123.121 131.263 112.798C137.223 102.475 149.503 98.2776 159.025 103.775C168.546 109.272 171.199 122.091 165.076 132.32C158.954 142.549 146.82 146.732 137.372 141.278Z" fill="#4D59DF"/>
</svg>
