<svg width="37" height="38" viewBox="0 0 37 38" fill="none" xmlns="http://www.w3.org/2000/svg">
<path d="M18.4772 0.543945C14.095 0.543945 10.5766 2.13036 10.5766 2.13036L9.18416 2.75237L12.1687 8.72141C9.05004 10.5568 0.946777 16.184 0.946777 25.3788C0.946777 29.6903 2.36177 32.9573 5.38931 34.7717C8.41686 36.5861 12.6481 37.0658 18.4772 37.0658C24.3064 37.0658 28.5376 36.5861 31.5652 34.7717C34.5927 32.9573 36.0077 29.6903 36.0077 25.3788C36.0077 19.3881 32.5333 14.9003 29.2483 11.9798C32.0628 13.1292 33.4712 14.6819 33.4712 14.6819L35.6225 12.7017C35.6225 12.7017 31.7753 8.95064 25.0711 8.15646L27.7703 2.75237L26.3779 2.13036C26.3779 2.13036 22.8595 0.543945 18.4772 0.543945ZM18.4772 3.46569C20.7958 3.46569 22.5199 3.91541 23.7273 4.3074L21.9582 7.84831H14.9963L13.2272 4.3074C14.4346 3.91541 16.1587 3.46569 18.4772 3.46569ZM14.534 10.7701H22.4233C22.8296 10.9837 33.086 16.4217 33.086 25.3788C33.086 29.1357 32.2028 30.9821 30.0644 32.2637C27.9259 33.5453 24.1233 34.144 18.4772 34.144C12.8312 34.144 9.0286 33.5453 6.89013 32.2637C4.75167 30.9821 3.86852 29.1357 3.86852 25.3788C3.86852 16.4221 14.1276 10.9837 14.534 10.7701ZM14.0946 15.1527V20.9962H12.6338V23.9179H14.0946V25.3788H12.6338V28.3005H14.0946V29.7614H17.0164V28.3005H21.399V25.3788H17.0164V23.9179H19.9381C21.7739 23.9179 23.0652 22.6129 23.713 20.9962H24.3207V19.5353C24.3207 17.1322 22.3412 15.1527 19.9381 15.1527H14.0946ZM17.0164 18.0744H19.9381C20.7636 18.0744 21.399 18.7098 21.399 19.5353C21.399 20.3607 20.7636 20.9962 19.9381 20.9962H17.0164V18.0744Z" fill="white"/>
</svg>
