<svg width="37" height="37" viewBox="0 0 37 37" fill="none" xmlns="http://www.w3.org/2000/svg">
<path d="M14.3933 0.194031L14.1738 1.33534L13.3398 5.5055C12.0009 6.03225 10.7938 6.773 9.69637 7.65642L5.614 6.25173L4.51659 5.90056L3.94594 6.91018L1.13657 11.7388L0.565918 12.7484L1.39995 13.4946L4.56049 16.2601C4.44526 16.9789 4.29711 17.6977 4.29711 18.4549C4.29711 19.2121 4.44526 19.9309 4.56049 20.6498L1.39995 23.4152L0.565918 24.1615L1.13657 25.1711L3.94594 29.9997L4.51659 31.0093L5.614 30.6581L9.69637 29.2534C10.7938 30.1369 12.0009 30.8776 13.3398 31.4044L14.1738 35.5745L14.3933 36.7158H22.2946L22.5141 35.5745L23.3481 31.4044C24.687 30.8776 25.8941 30.1369 26.9916 29.2534L31.0739 30.6581L32.1713 31.0093L32.742 29.9997L35.5513 25.1711L36.122 24.1615L35.288 23.4152L32.1274 20.6498C32.2427 19.9309 32.3908 19.2121 32.3908 18.4549C32.3908 17.6977 32.2427 16.9789 32.1274 16.2601L35.288 13.4946L36.122 12.7484L35.5513 11.7388L32.742 6.91018L32.1713 5.90056L31.0739 6.25173L26.9916 7.65642C25.8941 6.773 24.687 6.03225 23.3481 5.5055L22.5141 1.33534L22.2946 0.194031H14.3933ZM16.6759 3.0034H20.012L20.7144 6.6468L20.89 7.48083L21.6801 7.74421C23.2768 8.24353 24.7254 9.08854 25.938 10.2024L26.5526 10.7731L27.3427 10.5097L30.8983 9.28059L32.5664 12.1339L29.757 14.6359L29.0986 15.1627L29.3181 15.9967C29.4991 16.7978 29.5814 17.6154 29.5814 18.4549C29.5814 19.2945 29.4991 20.112 29.3181 20.9131L29.1425 21.7472L29.757 22.2739L32.5664 24.776L30.8983 27.6293L27.3427 26.4002L26.5526 26.1368L25.938 26.7075C24.7254 27.8213 23.2768 28.6663 21.6801 29.1657L20.89 29.429L20.7144 30.2631L20.012 33.9065H16.6759L15.9736 30.2631L15.798 29.429L15.0078 29.1657C13.4111 28.6663 11.9625 27.8213 10.7499 26.7075L10.1353 26.1368L9.3452 26.4002L5.78959 27.6293L4.12153 24.776L6.9309 22.2739L7.58934 21.7472L7.36986 20.9131C7.18879 20.112 7.10648 19.2945 7.10648 18.4549C7.10648 17.6154 7.18879 16.7978 7.36986 15.9967L7.58934 15.1627L6.9309 14.6359L4.12153 12.1339L5.78959 9.28059L9.3452 10.5097L10.1353 10.7731L10.7499 10.2024C11.9625 9.08854 13.4111 8.24353 15.0078 7.74421L15.798 7.48083L15.9736 6.6468L16.6759 3.0034ZM18.344 11.4315C14.4811 11.4315 11.3205 14.592 11.3205 18.4549C11.3205 22.3178 14.4811 25.4784 18.344 25.4784C22.2068 25.4784 25.3674 22.3178 25.3674 18.4549C25.3674 14.592 22.2068 11.4315 18.344 11.4315ZM18.344 14.2409C20.6869 14.2409 22.558 16.112 22.558 18.4549C22.558 20.7979 20.6869 22.669 18.344 22.669C16.001 22.669 14.1299 20.7979 14.1299 18.4549C14.1299 16.112 16.001 14.2409 18.344 14.2409Z" fill="white"/>
</svg>
