<svg width="23" height="23" viewBox="0 0 23 23" fill="none" xmlns="http://www.w3.org/2000/svg">
<path d="M11.5 0C5.1591 0 0 5.1591 0 11.5C0 17.8409 5.1591 23 11.5 23C17.8409 23 23 17.8409 23 11.5C23 5.1591 17.8409 0 11.5 0ZM11.5 1.76923C16.8837 1.76923 21.2308 6.11629 21.2308 11.5C21.2308 16.8837 16.8837 21.2308 11.5 21.2308C6.11629 21.2308 1.76923 16.8837 1.76923 11.5C1.76923 6.11629 6.11629 1.76923 11.5 1.76923ZM10.6154 6.19231V10.6154H6.19231V12.3846H10.6154V16.8077H12.3846V12.3846H16.8077V10.6154H12.3846V6.19231H10.6154Z" fill="white"/>
</svg>
