<svg width="107" height="28" viewBox="0 0 107 28" fill="none" xmlns="http://www.w3.org/2000/svg">
<path fill-rule="evenodd" clip-rule="evenodd" d="M0 1.57193C0 0.703778 0.710312 0 1.58655 0H27.8142C28.6904 0 29.4008 0.703778 29.4008 1.57193V26.4281C29.4008 27.2962 28.6904 28 27.8142 28H1.58655C0.710312 28 0 27.2962 0 26.4281V1.57193ZM23.8974 7.66316C23.8974 8.04297 23.5867 8.35088 23.2033 8.35088C22.82 8.35088 22.5092 8.04297 22.5092 7.66316C22.5092 7.28334 22.82 6.97544 23.2033 6.97544C23.5867 6.97544 23.8974 7.28334 23.8974 7.66316ZM8.22348 7.41113C8.37328 7.48218 8.60351 7.63211 8.73513 7.74433C9.16247 8.10873 9.32193 8.12895 9.8269 7.8827C11.4678 7.08259 13.3993 7.23051 14.7638 8.26073C15.3583 8.70954 15.4958 8.71449 16.0823 8.30788C18.3922 6.70678 21.7202 7.19527 22.7873 9.29202C23.3461 10.3901 23.4013 10.8865 23.4015 14.8137L23.4016 18.0382L23.2779 18.4252C22.8036 19.9083 20.8445 19.9782 20.2749 18.5325C20.1629 18.2484 20.1611 18.2033 20.1326 15.0716C20.1063 12.1832 20.1028 11.5533 19.8047 11.1243C19.719 11.0009 19.609 10.8941 19.4671 10.755C18.4544 9.76266 17.0879 10.2506 16.5537 11.7954L16.4109 12.2082L16.3838 15.2264C16.3593 17.9574 16.3641 18.4228 16.1498 18.7456C16.0961 18.8266 16.0285 18.8987 15.9431 18.9953C15.1095 19.9396 13.6361 19.6895 13.1918 18.5284C13.1378 18.3871 13.1157 17.6972 13.0904 15.3554C13.0614 12.6705 13.0523 12.6327 12.9634 12.2626C12.9593 12.2453 12.9549 12.2272 12.9504 12.2082C12.4269 9.99901 10.2551 10.0004 9.61847 12.2103C9.60922 12.2424 9.59777 12.273 9.58474 12.3079C9.49139 12.5576 9.31704 13.0239 9.29373 15.7939C9.26666 19.0061 9.26865 19.486 9.09906 19.8964C9.06244 19.985 9.01782 20.0704 8.96318 20.1794C8.25296 21.5956 6.35276 21.1426 6.05577 19.4863C5.98276 19.0792 5.97917 9.16562 6.0519 8.77516C6.26903 7.609 7.28926 6.96821 8.22348 7.41113Z" fill="white"/>
<path d="M53.064 1.47774C52.2464 1.58083 51.1117 2.00304 50.3883 2.46944C49.2338 3.21567 48.3964 4.30555 47.9702 5.62128C47.658 6.5737 47.658 7.78633 47.9702 8.78784C48.4261 10.2656 49.4766 11.4782 50.9482 12.2342C51.4338 12.4846 51.8798 12.6417 52.5685 12.8037C53.0591 12.9167 53.2077 12.9314 54.0798 12.9314C54.947 12.9314 55.1055 12.9167 55.5911 12.8037C56.2254 12.6565 56.5871 12.5337 57.1024 12.2883C58.6187 11.5715 59.7236 10.3343 60.2241 8.79275C61.0615 6.20059 59.7534 3.29422 57.2015 2.10123C56.4583 1.75757 55.7745 1.54647 55.1204 1.47283C54.6249 1.41391 53.5496 1.41882 53.064 1.47774ZM55.1204 4.35465C55.9974 4.64921 56.7011 5.38072 57.0033 6.30859C57.1718 6.80935 57.1619 7.63413 56.9835 8.1398C56.8101 8.64547 56.5623 9.01859 56.1709 9.38188C55.5763 9.94156 54.9965 10.1625 54.1591 10.1625C53.5794 10.1625 53.1384 10.0692 52.7172 9.85319C52.3257 9.6519 51.6717 9.00877 51.4685 8.61602C50.864 7.46721 51.0275 6.09258 51.8847 5.15488C52.3604 4.63449 52.955 4.31046 53.5893 4.2221C54.0699 4.15827 54.6942 4.21228 55.1204 4.35465Z" fill="white"/>
<path d="M81.7043 1.47774C80.8372 1.58084 79.7075 2.01777 78.8304 2.59708C78.1417 3.04875 77.3687 3.93244 76.9524 4.75231C76.4421 5.74892 76.2686 6.937 76.4569 8.12017C76.6403 9.26897 77.1407 10.2263 78.0128 11.1002C78.8948 11.979 79.9156 12.519 81.2832 12.8185C81.7291 12.9216 81.9372 12.9363 82.7201 12.9363C83.4981 12.9363 83.7161 12.9167 84.1571 12.8234C86.3324 12.3423 87.9725 11.0413 88.7158 9.19533C89.0279 8.42455 89.0874 8.10544 89.0874 7.16774C89.0874 6.42642 89.0676 6.24968 88.9734 5.8913C88.5225 4.23683 87.4622 2.9211 85.9657 2.17487C85.1531 1.76739 84.5337 1.57102 83.7607 1.47774C83.2801 1.41392 82.2098 1.41883 81.7043 1.47774ZM83.2503 4.22701C84.3404 4.37429 85.3364 5.2678 85.6734 6.40678C85.8072 6.86827 85.7873 7.62923 85.6288 8.11526C85.4058 8.80258 84.8211 9.50953 84.2166 9.83355C83.622 10.1527 82.6805 10.2607 82.0017 10.0888C81.085 9.8581 80.2822 9.13642 79.9106 8.21345C79.7867 7.90415 79.7768 7.8256 79.7768 7.16774C79.7768 6.50988 79.7867 6.43133 79.9106 6.11713C80.1336 5.56237 80.5845 4.99287 81.0651 4.66394C81.63 4.27119 82.4228 4.11409 83.2503 4.22701Z" fill="white"/>
<path d="M34.2447 1.70848C34.1654 1.79194 34.1604 2.70509 34.1604 13.8593V25.9168L34.2694 25.9904C34.3636 26.0591 34.5866 26.069 35.7262 26.069C36.965 26.069 37.074 26.0641 37.1483 25.9806C37.2227 25.902 37.2326 25.7253 37.2326 24.5323C37.2326 23.1871 37.2326 23.1773 37.3416 23.1037C37.4357 23.0399 37.6339 23.0251 38.4961 23.0251C39.6556 23.0251 40.2403 22.9564 40.8993 22.7502C41.6525 22.5195 42.1629 22.22 42.6435 21.734C43.357 21.0172 43.6246 20.3348 43.6246 19.2449C43.6246 18.6116 43.5652 18.2434 43.3917 17.8212C42.9606 16.7804 42.0093 16.0292 40.6615 15.6757C40.2254 15.5628 40.0619 15.5481 38.8529 15.5186C37.6141 15.4892 37.515 15.4843 37.4506 15.3959C37.3911 15.3124 37.3812 14.6399 37.3713 11.1247C37.3664 6.90263 37.3664 6.77499 37.406 6.73571C37.4754 6.66698 37.6736 6.80935 37.8222 7.03028C37.9857 7.28556 38.8876 8.58656 39.8092 9.90719C40.2155 10.4865 40.3047 10.5798 40.4137 10.5798C40.5326 10.5798 40.6763 10.3932 41.7417 8.86148C42.3958 7.91397 43.0052 7.045 43.0944 6.92718C43.2629 6.69644 43.4016 6.58843 43.4512 6.63752C43.471 6.65716 43.4809 8.00234 43.476 9.63717C43.471 12.2392 43.4809 12.6074 43.5453 12.6663C43.6048 12.7105 43.9764 12.7252 45.0963 12.7203C46.5283 12.7154 46.5778 12.7105 46.6621 12.6123C46.7414 12.5141 46.7463 12.1802 46.7463 7.17265C46.7463 2.64126 46.7364 1.82139 46.6769 1.73793C46.6076 1.64956 46.5233 1.64465 45.0517 1.62993C44.0953 1.62011 43.4413 1.63484 43.362 1.66429C43.2282 1.7183 42.9805 2.0325 42.5642 2.68545C42.4304 2.89655 42.0935 3.41204 41.816 3.82934C41.5385 4.24664 41.1768 4.8014 41.0083 5.05669C40.5921 5.70474 40.5574 5.74401 40.4583 5.74401C40.4088 5.74401 40.3344 5.70473 40.2948 5.65564C40.2304 5.582 39.0907 3.8588 38.0601 2.27306C37.852 1.95395 37.6835 1.74775 37.5844 1.69866C37.4605 1.62993 37.1929 1.62011 35.8798 1.62011C34.4379 1.62011 34.319 1.62502 34.2447 1.70848ZM38.9916 17.9635C39.9777 18.0617 40.5029 18.5477 40.5029 19.3676C40.5029 19.672 40.4831 19.7506 40.3394 19.9813C40.1561 20.2906 39.834 20.5311 39.4475 20.6441C39.279 20.6981 38.8925 20.7324 38.3376 20.7521C37.5943 20.7766 37.4704 20.7717 37.3614 20.6981L37.2326 20.6195V19.3431C37.2326 17.8064 37.1731 17.9193 38.0006 17.9193C38.2979 17.9193 38.7488 17.9439 38.9916 17.9635Z" fill="white"/>
<path d="M60.7642 1.86558L60.7692 2.98002C60.7741 3.86862 60.789 4.12391 60.8484 4.20737L60.9178 4.32029H62.5282C64.0742 4.32029 64.1436 4.32519 64.2377 4.41847C64.3368 4.51666 64.3368 4.58048 64.3368 8.56201C64.3368 11.8611 64.3467 12.6172 64.4012 12.6614C64.4458 12.6957 64.9512 12.7154 65.9522 12.7154C67.4238 12.7203 67.4337 12.7203 67.5229 12.6123C67.6072 12.5092 67.6121 12.2833 67.6072 8.50801C67.5973 4.76704 67.6022 4.50193 67.6865 4.41356C67.7657 4.3252 67.8549 4.32029 69.3662 4.32029C70.6298 4.32029 70.9766 4.30556 71.0509 4.25155C71.1352 4.19264 71.1401 4.10427 71.1352 2.99475C71.1302 1.9785 71.1154 1.78703 71.0509 1.72321C70.9816 1.65448 70.4514 1.64466 65.9918 1.62993L61.012 1.62011L60.7642 1.86558Z" fill="white"/>
<path d="M72.1758 1.69866L72.0667 1.7723V7.68323C72.0667 12.9903 72.0767 13.5991 72.146 13.6678C72.2104 13.7365 72.4136 13.7463 73.6226 13.7463C74.7573 13.7463 75.0398 13.7316 75.0844 13.6776C75.124 13.6285 75.1389 12.0575 75.1389 7.67832C75.1389 2.1356 75.1339 1.73794 75.0546 1.68393C74.9952 1.63484 74.6236 1.62011 73.6276 1.62011C72.4929 1.62011 72.2699 1.62993 72.1758 1.69866Z" fill="white"/>
<path d="M90.1874 1.70848C90.1082 1.79194 90.1032 2.2436 90.1032 7.1972C90.1032 11.3309 90.1181 12.6123 90.1627 12.6565C90.2469 12.7399 93.1803 12.7399 93.2645 12.6565C93.3091 12.6123 93.324 11.9004 93.324 9.75991C93.324 7.13338 93.329 6.91736 93.4082 6.88791C93.4677 6.86336 93.5371 6.90754 93.6411 7.04501C93.9186 7.38376 95.861 9.73536 96.3516 10.3196C96.6191 10.6387 96.8619 10.9431 96.8917 10.9971C96.9313 11.0707 96.9462 12.0968 96.9412 14.4828C96.9412 17.8162 96.9412 17.8703 97.0403 17.9684C97.1345 18.0617 97.1989 18.0666 98.6656 18.0666C100.098 18.0666 100.202 18.0715 100.281 18.1599C100.355 18.2434 100.365 18.5674 100.375 22.0874C100.385 25.8284 100.39 25.9315 100.479 26.0002C100.628 26.1082 103.214 26.1033 103.373 25.9904L103.482 25.9168V22.0727C103.482 18.4103 103.487 18.2237 103.571 18.1501C103.65 18.0764 103.839 18.0666 105.167 18.0666C106.212 18.0666 106.723 18.047 106.836 18.0077L107 17.9488V16.7853C107 15.6267 107 15.6217 106.891 15.5825C106.827 15.5579 105.553 15.5285 104.062 15.5137C101.426 15.4892 101.341 15.4843 101.272 15.391C101.208 15.3075 101.203 14.3649 101.203 8.54238L101.208 1.79194L101.103 1.70848C101.004 1.62993 100.856 1.62011 99.6318 1.62011C98.2939 1.62011 98.1205 1.63975 98.0165 1.78703C97.9966 1.81649 97.9818 3.04384 97.9867 4.51175C97.9867 6.19568 97.9719 7.1972 97.9421 7.22665C97.8579 7.31011 97.6944 7.22175 97.5755 7.03028C97.4863 6.883 95.1574 4.04536 93.5371 2.10123C93.3438 1.87049 93.1654 1.70848 93.0663 1.67411C92.9722 1.63975 92.4172 1.62011 91.5897 1.62011C90.3708 1.62011 90.2618 1.62502 90.1874 1.70848Z" fill="white"/>
<path d="M72.2749 14.3404C72.0667 14.4189 72.0717 14.3551 72.0568 18.6361L72.042 22.7551L71.933 22.9564C71.7893 23.2215 71.4325 23.5308 71.1847 23.6044C70.605 23.7763 69.946 23.5504 69.3514 22.9809C69.0838 22.7207 68.9302 22.7158 68.6923 22.9564C68.6031 23.0546 68.2067 23.4081 67.8203 23.7468C66.9531 24.498 66.9581 24.4881 67.4536 24.9545C68.4099 25.848 69.5496 26.2653 71.0014 26.2653C73.0776 26.2555 74.6582 25.1656 75.0596 23.4572C75.1686 22.9908 75.1835 14.5073 75.0794 14.3993C75.02 14.3453 74.7375 14.3306 73.6821 14.3207C72.9537 14.3158 72.3195 14.3257 72.2749 14.3404Z" fill="white"/>
<path d="M60.3975 15.3026C58.034 15.5776 56.3641 16.6625 55.4226 18.5232C54.8578 19.6376 54.724 21.0123 55.0708 22.2445C55.6308 24.2574 57.5385 25.8628 59.7782 26.2162C60.1944 26.2801 61.6413 26.2801 62.0575 26.2162C64.5598 25.8235 66.5666 23.9579 66.9382 21.6799C67.1761 20.2219 66.8144 18.7687 65.9175 17.5708C65.6648 17.232 65.085 16.6625 64.8472 16.5152C64.7679 16.4662 64.6639 16.3876 64.6094 16.3434C64.4607 16.2158 63.5688 15.7837 63.1476 15.6414C62.4489 15.4008 61.0417 15.2241 60.3975 15.3026ZM61.8246 18.0715C62.5034 18.2974 63.0584 18.7441 63.4251 19.3529C63.6382 19.7162 63.8413 20.4231 63.8413 20.8159C63.8413 21.2037 63.6382 21.9156 63.43 22.2642C63.2368 22.5882 62.8404 23.0006 62.5034 23.2264C62.117 23.4768 61.5868 23.6143 60.9773 23.6143C60.0556 23.6143 59.57 23.4179 58.9556 22.8091C58.4452 22.2985 58.2124 21.837 58.1281 21.1988C57.9497 19.7947 58.7178 18.5085 59.9863 18.0912C60.4818 17.9292 61.3638 17.9193 61.8246 18.0715Z" fill="white"/>
<path d="M91.4906 15.3026C89.905 15.4843 88.6712 16.0489 87.695 17.0455C87.041 17.7181 86.6297 18.4152 86.3671 19.3038C86.0252 20.4771 86.0995 21.842 86.5653 22.9269C86.9171 23.7419 87.591 24.5912 88.3342 25.1509C88.9933 25.6566 89.9992 26.0788 90.8465 26.2113C91.2478 26.2752 92.6947 26.2801 93.1308 26.2162C93.9186 26.1033 94.8254 25.7646 95.4993 25.3325C95.8412 25.1116 96.8223 24.1936 96.8669 24.0512C96.9115 23.9186 96.8173 23.7861 96.5844 23.6486C96.4655 23.5799 96.0097 23.2804 95.5637 22.9809C95.0484 22.6324 94.7114 22.436 94.6272 22.436C94.538 22.436 94.3893 22.5391 94.1218 22.7944C93.4826 23.3982 92.9375 23.6143 92.0555 23.6143C91.3073 23.6143 90.8167 23.4375 90.2915 22.9809C90.0239 22.7502 89.6771 22.2102 89.5235 21.7978C89.4095 21.4738 89.3897 21.3559 89.3897 20.8159C89.3847 20.2562 89.3996 20.1679 89.5284 19.8095C89.8257 19.0092 90.3163 18.4594 91.0199 18.1354C91.2825 18.0175 91.3915 17.9979 91.9415 17.9783C92.5163 17.9586 92.5907 17.9684 92.9524 18.0912C93.4281 18.2581 93.7997 18.4839 94.201 18.857C94.3695 19.019 94.5231 19.1467 94.5479 19.1467C94.6272 19.1467 96.0443 18.1255 96.4606 17.7672C96.8025 17.4775 96.7826 17.4039 96.2624 16.8933C95.42 16.0685 94.5578 15.6217 93.3884 15.4155C92.8434 15.3174 91.8771 15.2584 91.4906 15.3026Z" fill="white"/>
<path d="M44.581 15.5039C44.5215 15.5137 44.4521 15.5481 44.4224 15.5825C44.3778 15.6316 44.3481 21.4492 44.3679 25.8088C44.3679 26.0591 44.4174 26.069 45.8941 26.069C47.0585 26.069 47.2864 26.0591 47.3806 25.9904C47.4896 25.9168 47.4896 25.907 47.4896 24.4783C47.4896 23.3491 47.5045 23.0251 47.559 22.9515C47.6135 22.8778 47.7027 22.8582 48.1139 22.8533C48.4211 22.8435 48.6639 22.8631 48.7581 22.9024C48.8621 22.9466 49.0158 23.1086 49.2288 23.413C49.4022 23.6584 49.7541 24.1543 50.0117 24.5127C50.2644 24.8662 50.5816 25.3178 50.7153 25.5093C51.1266 26.1131 50.9581 26.069 52.8658 26.069C54.2384 26.069 54.5258 26.0591 54.5704 26.0002C54.6497 25.907 54.6298 25.8775 54.1442 25.2295C53.9312 24.9447 53.5695 24.4489 53.3366 24.1297C53.1037 23.8155 52.7816 23.3786 52.6181 23.1626C52.4546 22.9466 52.2762 22.6913 52.2217 22.598L52.1226 22.4311L52.2564 22.3231C52.3257 22.2642 52.5239 22.1365 52.6924 22.0432C53.3514 21.675 53.9114 21.027 54.169 20.3151C54.2929 19.9813 54.2979 19.8978 54.2979 19.1467C54.2979 18.3857 54.2929 18.3121 54.1591 17.9439C53.9361 17.3057 53.5992 16.8295 53.1185 16.4563C52.5388 16.0096 52.0978 15.8132 51.2406 15.6365C50.6856 15.5186 50.6311 15.5186 47.6828 15.5039C46.0378 15.4941 44.6404 15.4941 44.581 15.5039ZM50.2942 18.1845C50.6658 18.2974 50.973 18.5527 51.0969 18.8472C51.3892 19.51 51.087 20.1433 50.3437 20.4379C50.1158 20.5312 49.9622 20.541 48.8721 20.5606C47.7869 20.5753 47.6432 20.5704 47.5738 20.4968C47.4995 20.4281 47.4896 20.2759 47.4896 19.3333C47.4896 18.3661 47.4995 18.2335 47.5788 18.1501C47.6581 18.0617 47.7175 18.0568 48.8522 18.0814C49.7441 18.101 50.1059 18.1255 50.2942 18.1845Z" fill="white"/>
<path d="M76.5759 15.5236C76.5263 15.5432 76.4718 15.5776 76.4569 15.607C76.4371 15.6316 76.4272 17.9586 76.4223 20.7717C76.4223 25.4995 76.4322 25.8922 76.5065 25.9757C76.5858 26.0641 76.7592 26.069 80.9859 26.069C85.1828 26.069 85.386 26.0641 85.4603 25.9806C85.5346 25.902 85.5445 25.7449 85.5445 24.8072C85.5445 23.8254 85.5346 23.7223 85.4554 23.6486C85.3711 23.575 85.0936 23.5652 82.4823 23.5652C79.6876 23.5652 79.5984 23.5603 79.5489 23.4719C79.5241 23.4179 79.4994 23.0791 79.4994 22.7109C79.4994 22.0825 79.5043 22.0432 79.6133 21.9696C79.7075 21.9009 80.0048 21.8911 82.1503 21.896C83.4882 21.9009 84.6179 21.9009 84.6625 21.896C84.7071 21.896 84.7815 21.8616 84.8211 21.8174C84.9301 21.7094 84.94 19.8536 84.831 19.7064C84.7616 19.618 84.6675 19.6131 82.19 19.5984C79.8561 19.5885 79.6183 19.5787 79.5638 19.5051C79.5192 19.4511 79.4994 19.2154 79.4994 18.7736C79.4994 18.155 79.5043 18.1157 79.6133 18.0421C79.7075 17.9733 80.0345 17.9635 82.4229 17.9684C83.9094 17.9684 85.1729 17.9733 85.2324 17.9684C85.4801 17.9635 85.495 17.8899 85.495 16.8C85.495 16.2403 85.4801 15.7347 85.4653 15.6708C85.4454 15.6119 85.386 15.5481 85.3265 15.5334C85.168 15.499 76.6849 15.4843 76.5759 15.5236Z" fill="white"/>
</svg>
