<svg width="141" height="37" viewBox="0 0 141 37" fill="none" xmlns="http://www.w3.org/2000/svg">
<path fill-rule="evenodd" clip-rule="evenodd" d="M0 2.07719C0 0.929992 0.929976 0 2.07719 0H36.4158C37.563 0 38.493 0.929992 38.493 2.07719V34.9228C38.493 36.07 37.563 37 36.4158 37H2.07719C0.929976 37 0 36.07 0 34.9228V2.07719ZM31.2877 10.1263C31.2877 10.6282 30.8808 11.0351 30.3789 11.0351C29.8771 11.0351 29.4702 10.6282 29.4702 10.1263C29.4702 9.62442 29.8771 9.21754 30.3789 9.21754C30.8808 9.21754 31.2877 9.62442 31.2877 10.1263ZM10.7666 9.79328C10.9627 9.88717 11.2642 10.0853 11.4365 10.2336C11.996 10.7151 12.2047 10.7418 12.8659 10.4164C15.0143 9.35914 17.543 9.5546 19.3295 10.916C20.1078 11.509 20.2879 11.5156 21.0558 10.9783C24.08 8.86253 28.4371 9.50803 29.8343 12.2787C30.5659 13.7298 30.6382 14.3858 30.6385 19.5752L30.6386 23.8363L30.4766 24.3476C29.8556 26.3073 27.2907 26.3998 26.5449 24.4893C26.3983 24.1139 26.396 24.0544 26.3586 19.9161C26.3242 16.0992 26.3196 15.2669 25.9294 14.6999C25.8172 14.5369 25.6731 14.3958 25.4873 14.212C24.1614 12.9007 22.3724 13.5455 21.6729 15.5868L21.486 16.1323L21.4505 20.1206C21.4185 23.7294 21.4247 24.3444 21.1442 24.7709C21.0738 24.878 20.9853 24.9732 20.8736 25.1009C19.7822 26.3487 17.853 26.0183 17.2714 24.4839C17.2006 24.2972 17.1718 23.3855 17.1386 20.291C17.1006 16.7431 17.0888 16.6932 16.9724 16.2041C16.9669 16.1813 16.9613 16.1574 16.9554 16.1323C16.2699 13.213 13.4265 13.2148 12.593 16.135C12.5809 16.1775 12.5659 16.2179 12.5488 16.264C12.4266 16.5939 12.1983 17.2102 12.1678 20.8706C12.1324 25.1152 12.135 25.7494 11.913 26.2917C11.865 26.4088 11.8066 26.5216 11.7351 26.6656C10.8052 28.537 8.31736 27.9384 7.92852 25.7497C7.83293 25.2119 7.82824 12.1117 7.92345 11.5957C8.20773 10.0547 9.54347 9.20799 10.7666 9.79328Z" fill="white"/>
<path d="M69.4741 1.95272C68.4037 2.08896 66.9181 2.64688 65.9709 3.26318C64.4593 4.24927 63.363 5.68948 62.805 7.42812C62.3963 8.68668 62.3963 10.2891 62.805 11.6125C63.4019 13.5652 64.7772 15.1676 66.704 16.1667C67.3398 16.4975 67.9236 16.7051 68.8254 16.9192C69.4676 17.0684 69.6623 17.0879 70.804 17.0879C71.9393 17.0879 72.1469 17.0684 72.7827 16.9192C73.6131 16.7246 74.0867 16.5624 74.7614 16.238C76.7465 15.2909 78.1932 13.6561 78.8485 11.619C79.9448 8.19363 78.2322 4.35307 74.8911 2.77663C73.918 2.32251 73.0227 2.04355 72.1664 1.94623C71.5177 1.86839 70.1099 1.87487 69.4741 1.95272ZM72.1664 5.75436C73.3147 6.1436 74.2359 7.11023 74.6316 8.33636C74.8522 8.99807 74.8392 10.088 74.6057 10.7562C74.3786 11.4244 74.0542 11.9174 73.5417 12.3975C72.7633 13.1371 72.0042 13.429 70.9079 13.429C70.1488 13.429 69.5714 13.3057 69.02 13.0203C68.5075 12.7543 67.6512 11.9044 67.3852 11.3854C66.5937 9.86739 66.8078 8.05091 67.9301 6.81181C68.5529 6.12414 69.3314 5.69597 70.1618 5.5792C70.7911 5.49486 71.6085 5.56622 72.1664 5.75436Z" fill="white"/>
<path d="M106.971 1.95273C105.836 2.08896 104.357 2.66634 103.209 3.43186C102.307 4.0287 101.295 5.19644 100.75 6.27984C100.082 7.59679 99.8548 9.16675 100.101 10.7302C100.341 12.2483 100.997 13.5133 102.138 14.6681C103.293 15.8293 104.63 16.543 106.42 16.9387C107.004 17.0749 107.276 17.0944 108.301 17.0944C109.32 17.0944 109.605 17.0684 110.183 16.9452C113.031 16.3094 115.178 14.5902 116.151 12.151C116.56 11.1324 116.638 10.7108 116.638 9.47166C116.638 8.49206 116.612 8.25851 116.489 7.78493C115.898 5.59866 114.51 3.86003 112.551 2.87394C111.487 2.33548 110.676 2.07599 109.664 1.95273C109.034 1.86839 107.633 1.87488 106.971 1.95273ZM108.996 5.58569C110.423 5.78031 111.727 6.96102 112.168 8.46611C112.343 9.07593 112.317 10.0815 112.11 10.7237C111.818 11.632 111.052 12.5662 110.261 12.9943C109.482 13.416 108.25 13.5587 107.361 13.3317C106.161 13.0268 105.11 12.0731 104.623 10.8535C104.461 10.4448 104.448 10.341 104.448 9.47166C104.448 8.60234 104.461 8.49855 104.623 8.08335C104.915 7.35027 105.505 6.59773 106.135 6.16307C106.874 5.64407 107.912 5.43648 108.996 5.58569Z" fill="white"/>
<path d="M44.8349 2.25763C44.7311 2.36792 44.7246 3.57458 44.7246 18.314V34.2472L44.8673 34.3445C44.9905 34.4353 45.2825 34.4483 46.7746 34.4483C48.3965 34.4483 48.5392 34.4418 48.6365 34.3315C48.7338 34.2277 48.7468 33.9942 48.7468 32.4177C48.7468 30.6401 48.7468 30.6272 48.8895 30.5299C49.0128 30.4455 49.2723 30.4261 50.4011 30.4261C51.9191 30.4261 52.6846 30.3352 53.5475 30.0628C54.5336 29.7579 55.2018 29.3621 55.831 28.7199C56.7652 27.7727 57.1156 26.8709 57.1156 25.4307C57.1156 24.5939 57.0377 24.1073 56.8106 23.5494C56.2462 22.174 55.0007 21.1815 53.2361 20.7144C52.6652 20.5652 52.4511 20.5457 50.8682 20.5068C49.2463 20.4679 49.1166 20.4614 49.0322 20.3446C48.9544 20.2343 48.9414 19.3455 48.9284 14.7005C48.9219 9.12133 48.9219 8.95266 48.9738 8.90076C49.0647 8.80994 49.3242 8.99807 49.5188 9.29001C49.7329 9.62735 50.9136 11.3465 52.1202 13.0916C52.6522 13.8572 52.769 13.9804 52.9117 13.9804C53.0674 13.9804 53.2555 13.7339 54.6503 11.7098C55.5067 10.4577 56.3046 9.30947 56.4214 9.15377C56.642 8.84886 56.8236 8.70614 56.8885 8.77101C56.9144 8.79696 56.9274 10.5745 56.9209 12.7348C56.9144 16.1732 56.9274 16.6597 57.0118 16.7376C57.0896 16.796 57.5762 16.8154 59.0423 16.8089C60.9172 16.8025 60.9821 16.796 61.0924 16.6662C61.1962 16.5365 61.2026 16.0953 61.2026 9.47814C61.2026 3.49024 61.1897 2.40684 61.1118 2.29655C61.021 2.17978 60.9107 2.17329 58.9839 2.15383C57.7319 2.14086 56.8755 2.16032 56.7717 2.19924C56.5966 2.2706 56.2722 2.6858 55.7272 3.54863C55.5521 3.82759 55.1109 4.50877 54.7476 5.0602C54.3843 5.61163 53.9108 6.34471 53.6902 6.68206C53.1453 7.5384 53.0998 7.5903 52.9701 7.5903C52.9052 7.5903 52.8079 7.5384 52.756 7.47353C52.6717 7.37621 51.1796 5.09913 49.8302 3.00368C49.5577 2.582 49.3371 2.30953 49.2074 2.24465C49.0452 2.15383 48.6949 2.14086 46.9757 2.14086C45.0879 2.14086 44.9322 2.14734 44.8349 2.25763ZM51.0498 23.7375C52.3408 23.8673 53.0285 24.5095 53.0285 25.5929C53.0285 25.9951 53.0025 26.0989 52.8144 26.4039C52.5744 26.8126 52.1527 27.1304 51.6467 27.2797C51.4261 27.351 50.9201 27.3964 50.1935 27.4224C49.2204 27.4548 49.0582 27.4483 48.9154 27.351L48.7468 27.2472V25.5605C48.7468 23.5299 48.6689 23.6791 49.7523 23.6791C50.1416 23.6791 50.7319 23.7116 51.0498 23.7375Z" fill="white"/>
<path d="M79.5556 2.46523L79.5621 3.93788C79.5686 5.11211 79.588 5.44945 79.6659 5.55974L79.7567 5.70895H81.8651C83.8892 5.70895 83.98 5.71544 84.1033 5.8387C84.233 5.96845 84.233 6.05278 84.233 11.3141C84.233 15.6736 84.246 16.6727 84.3174 16.7311C84.3758 16.7765 85.0375 16.8025 86.3479 16.8025C88.2747 16.8089 88.2877 16.8089 88.4044 16.6662C88.5147 16.53 88.5212 16.2316 88.5147 11.2427C88.5018 6.29931 88.5082 5.94898 88.6185 5.83221C88.7223 5.71544 88.8391 5.70895 90.8178 5.70895C92.4721 5.70895 92.9262 5.68949 93.0235 5.61812C93.1338 5.54028 93.1403 5.4235 93.1338 3.95734C93.1273 2.61444 93.1078 2.36143 93.0235 2.2771C92.9327 2.18627 92.2385 2.1733 86.3998 2.15384L79.88 2.14086L79.5556 2.46523Z" fill="white"/>
<path d="M94.4962 2.24466L94.3534 2.34197V10.1528C94.3534 17.1658 94.3664 17.9702 94.4572 18.061C94.5416 18.1518 94.8076 18.1648 96.3905 18.1648C97.8761 18.1648 98.2459 18.1454 98.3043 18.074C98.3562 18.0091 98.3756 15.9331 98.3756 10.1464C98.3756 2.82204 98.3692 2.29656 98.2654 2.2252C98.1875 2.16032 97.701 2.14086 96.397 2.14086C94.9114 2.14086 94.6194 2.15383 94.4962 2.24466Z" fill="white"/>
<path d="M118.078 2.25763C117.974 2.36792 117.968 2.96476 117.968 9.51058C117.968 14.973 117.987 16.6662 118.046 16.7246C118.156 16.8349 121.996 16.8349 122.107 16.7246C122.165 16.6662 122.185 15.7255 122.185 12.897C122.185 9.42625 122.191 9.1408 122.295 9.10188C122.373 9.06944 122.463 9.12782 122.6 9.30947C122.963 9.75711 125.506 12.8646 126.148 13.6366C126.499 14.0583 126.817 14.4605 126.855 14.5319C126.907 14.6292 126.927 15.985 126.92 19.1379C126.92 23.5429 126.92 23.6143 127.05 23.744C127.173 23.8673 127.258 23.8738 129.178 23.8738C131.053 23.8738 131.189 23.8802 131.293 23.997C131.39 24.1073 131.403 24.5355 131.416 29.187C131.429 34.1304 131.436 34.2666 131.552 34.3575C131.747 34.5002 135.133 34.4937 135.341 34.3445L135.484 34.2472V29.1675C135.484 24.3279 135.49 24.0814 135.601 23.984C135.704 23.8867 135.951 23.8738 137.689 23.8738C139.058 23.8738 139.727 23.8478 139.876 23.7959L140.09 23.7181V22.1805C140.09 20.6495 140.09 20.643 139.947 20.5911C139.863 20.5587 138.196 20.5198 136.243 20.5003C132.791 20.4679 132.681 20.4614 132.59 20.3381C132.506 20.2278 132.5 18.9822 132.5 11.2881L132.506 2.36792L132.37 2.25763C132.24 2.15384 132.045 2.14086 130.443 2.14086C128.691 2.14086 128.464 2.16681 128.328 2.36143C128.302 2.40036 128.283 4.02222 128.289 5.96196C128.289 8.18715 128.27 9.51058 128.231 9.54951C128.121 9.65979 127.906 9.54302 127.751 9.29001C127.634 9.09539 124.585 5.34565 122.463 2.77663C122.21 2.47172 121.977 2.25763 121.847 2.21222C121.724 2.16681 120.997 2.14086 119.914 2.14086C118.318 2.14086 118.175 2.14735 118.078 2.25763Z" fill="white"/>
<path d="M94.6259 18.9498C94.3534 19.0536 94.3599 18.9693 94.3405 24.6263L94.321 30.0693L94.1783 30.3352C93.9902 30.6856 93.523 31.0943 93.1987 31.1916C92.4397 31.4186 91.5768 31.1202 90.7983 30.3677C90.448 30.0238 90.2469 30.0174 89.9355 30.3352C89.8187 30.465 89.2997 30.9321 88.7937 31.3797C87.6584 32.3723 87.6649 32.3593 88.3136 32.9756C89.5657 34.1563 91.0578 34.7078 92.9586 34.7078C95.6769 34.6948 97.7464 33.2546 98.2719 30.997C98.4146 30.3807 98.434 19.1704 98.2978 19.0276C98.2199 18.9563 97.8502 18.9368 96.4683 18.9238C95.5147 18.9174 94.6843 18.9303 94.6259 18.9498Z" fill="white"/>
<path d="M79.0755 20.2213C75.981 20.5846 73.7947 22.0183 72.5621 24.4771C71.8226 25.9497 71.6474 27.7662 72.1015 29.3946C72.8346 32.0544 75.3323 34.1758 78.2646 34.6429C78.8095 34.7272 80.7039 34.7272 81.2488 34.6429C84.525 34.1239 87.1524 31.6587 87.6389 28.6485C87.9503 26.7217 87.4767 24.8015 86.3025 23.2185C85.9717 22.7709 85.2126 22.0183 84.9012 21.8237C84.7974 21.7589 84.6612 21.6551 84.5898 21.5967C84.3952 21.428 83.2275 20.8571 82.676 20.669C81.7613 20.3511 79.9189 20.1175 79.0755 20.2213ZM80.9439 23.8802C81.8327 24.1787 82.5593 24.769 83.0393 25.5735C83.3183 26.0535 83.5843 26.9877 83.5843 27.5067C83.5843 28.0192 83.3183 28.9599 83.0458 29.4205C82.7928 29.8487 82.2738 30.3936 81.8327 30.692C81.3267 31.0229 80.6325 31.2046 79.8345 31.2046C78.6279 31.2046 77.9921 30.9451 77.1877 30.1406C76.5195 29.4659 76.2146 28.8561 76.1043 28.0127C75.8707 26.1573 76.8763 24.4576 78.5371 23.9062C79.1858 23.6921 80.3406 23.6791 80.9439 23.8802Z" fill="white"/>
<path d="M119.784 20.2213C117.708 20.4614 116.093 21.2074 114.815 22.5244C113.958 23.4131 113.42 24.3344 113.076 25.5086C112.629 27.0591 112.726 28.8626 113.336 30.2963C113.796 31.3732 114.679 32.4956 115.652 33.2351C116.515 33.9033 117.831 34.4612 118.941 34.6364C119.466 34.7207 121.361 34.7272 121.932 34.6429C122.963 34.4937 124.15 34.046 125.033 33.4752C125.48 33.1832 126.765 31.9701 126.823 31.7819C126.881 31.6068 126.758 31.4316 126.453 31.25C126.298 31.1591 125.701 30.7634 125.117 30.3677C124.442 29.9071 124.001 29.6476 123.891 29.6476C123.774 29.6476 123.579 29.7838 123.229 30.1212C122.392 30.9191 121.679 31.2046 120.524 31.2046C119.544 31.2046 118.902 30.971 118.214 30.3677C117.864 30.0628 117.41 29.3491 117.209 28.8042C117.059 28.376 117.034 28.2203 117.034 27.5067C117.027 26.7671 117.046 26.6504 117.215 26.1768C117.604 25.1193 118.247 24.3927 119.168 23.9646C119.512 23.8089 119.654 23.7829 120.375 23.757C121.127 23.731 121.224 23.744 121.698 23.9062C122.321 24.1268 122.807 24.4252 123.333 24.9182C123.553 25.1323 123.754 25.301 123.787 25.301C123.891 25.301 125.746 23.9516 126.291 23.478C126.739 23.0953 126.713 22.9979 126.032 22.3233C124.929 21.2334 123.8 20.643 122.269 20.3705C121.555 20.2408 120.29 20.1629 119.784 20.2213Z" fill="white"/>
<path d="M58.3677 20.4873C58.2898 20.5003 58.199 20.5457 58.1601 20.5911C58.1017 20.656 58.0627 28.3436 58.0887 34.1044C58.0887 34.4353 58.1536 34.4483 60.0868 34.4483C61.6114 34.4483 61.9098 34.4353 62.0331 34.3445C62.1758 34.2472 62.1758 34.2342 62.1758 32.3463C62.1758 30.8542 62.1952 30.4261 62.2666 30.3288C62.338 30.2314 62.4547 30.2055 62.9932 30.199C63.3954 30.186 63.7133 30.212 63.8366 30.2639C63.9728 30.3223 64.1739 30.5364 64.4529 30.9386C64.6799 31.2629 65.1405 31.9182 65.4779 32.3918C65.8087 32.8589 66.2239 33.4557 66.3991 33.7087C66.9376 34.5067 66.717 34.4483 69.2146 34.4483C71.0117 34.4483 71.3879 34.4353 71.4463 34.3574C71.5501 34.2342 71.5242 34.1953 70.8884 33.3389C70.6094 32.9627 70.1359 32.3074 69.8309 31.8857C69.526 31.4705 69.1044 30.8932 68.8903 30.6077C68.6762 30.3223 68.4426 29.9849 68.3713 29.8617L68.2415 29.6411L68.4167 29.4984C68.5075 29.4205 68.767 29.2518 68.9876 29.1286C69.8504 28.642 70.5835 27.7857 70.9208 26.845C71.083 26.4039 71.0895 26.2936 71.0895 25.301C71.0895 24.2954 71.083 24.1981 70.9079 23.7116C70.6159 22.8682 70.1748 22.2389 69.5455 21.7459C68.7865 21.1555 68.2091 20.896 67.0868 20.6625C66.3602 20.5068 66.2888 20.5068 62.4288 20.4873C60.275 20.4743 58.4455 20.4743 58.3677 20.4873ZM65.8477 24.0295C66.3342 24.1787 66.7364 24.516 66.8986 24.9053C67.2814 25.7811 66.8857 26.6179 65.9125 27.0072C65.6141 27.1304 65.413 27.1434 63.9858 27.1694C62.565 27.1888 62.3769 27.1823 62.2861 27.085C62.1888 26.9942 62.1758 26.7931 62.1758 25.5475C62.1758 24.2695 62.1888 24.0943 62.2925 23.984C62.3963 23.8673 62.4742 23.8608 63.9598 23.8932C65.1276 23.9192 65.6011 23.9516 65.8477 24.0295Z" fill="white"/>
<path d="M100.257 20.5133C100.192 20.5392 100.121 20.5846 100.101 20.6236C100.075 20.656 100.062 23.731 100.056 27.4483C100.056 33.6957 100.069 34.2147 100.166 34.325C100.27 34.4418 100.497 34.4483 106.031 34.4483C111.526 34.4483 111.792 34.4418 111.889 34.3315C111.986 34.2277 111.999 34.0201 111.999 32.781C111.999 31.4835 111.986 31.3473 111.882 31.25C111.772 31.1527 111.409 31.1397 107.99 31.1397C104.331 31.1397 104.214 31.1332 104.149 31.0164C104.117 30.9451 104.085 30.4974 104.085 30.0109C104.085 29.1805 104.091 29.1286 104.234 29.0313C104.357 28.9404 104.746 28.9275 107.555 28.934C109.307 28.9404 110.786 28.9404 110.844 28.934C110.903 28.934 111 28.8885 111.052 28.8302C111.195 28.6874 111.208 26.2352 111.065 26.0406C110.974 25.9238 110.851 25.9173 107.607 25.8978C104.552 25.8849 104.24 25.8719 104.169 25.7746C104.111 25.7032 104.085 25.3918 104.085 24.8079C104.085 23.9905 104.091 23.9386 104.234 23.8413C104.357 23.7505 104.785 23.7375 107.912 23.744C109.858 23.744 111.513 23.7505 111.591 23.744C111.915 23.7375 111.934 23.6402 111.934 22.2C111.934 21.4604 111.915 20.7922 111.895 20.7079C111.87 20.63 111.792 20.5457 111.714 20.5262C111.506 20.4808 100.4 20.4614 100.257 20.5133Z" fill="white"/>
</svg>
