<svg width="37" height="38" viewBox="0 0 37 38" fill="none" xmlns="http://www.w3.org/2000/svg">
<path d="M18.3742 0.543945C8.30453 0.543945 0.113281 8.7352 0.113281 18.8048C0.113281 28.8745 8.30453 37.0658 18.3742 37.0658C28.4438 37.0658 36.6351 28.8745 36.6351 18.8048C36.6351 8.7352 28.4438 0.543945 18.3742 0.543945ZM18.3742 3.58743C21.3701 3.58743 24.152 4.47908 26.506 5.96515L25.2696 6.10781L25.5549 9.1513L23.9381 8.43798L22.6065 9.57929L22.8443 12.7179L26.1256 11.6717L30.2152 13.0032L29.169 14.9054L26.6962 13.3836L24.0332 13.7641L21.4177 15.7138L19.9435 20.279L22.8919 22.7043C22.8919 22.7043 25.9175 22.1812 26.078 22.1812C26.2385 22.1812 27.362 24.9394 27.362 24.9394L24.9367 32.5481C22.9572 33.4932 20.7222 34.0223 18.3742 34.0223C17.8927 34.0223 17.4172 33.9688 16.9475 33.9272L15.2831 31.0263L16.9 24.9394L10.7655 20.3266H5.1065L3.63231 17.3307L7.72199 14.097L13.809 11.1961L12.9054 7.15401L15.5209 6.58336L16.7573 8.29532L21.3226 7.43934L20.5141 3.92031L17.1378 3.68254C17.542 3.65282 17.9581 3.58743 18.3742 3.58743ZM16.6622 3.68254L14.2845 4.68118L13.1432 4.49096C14.2667 4.08081 15.4318 3.81926 16.6622 3.68254ZM3.25187 19.9937L4.72606 21.7057V24.8443L7.57933 27.9829H9.33884L13.6663 33.3089C7.9241 31.4484 3.73336 26.2471 3.25187 19.9937Z" fill="white"/>
</svg>
