<svg width="35" height="38" viewBox="0 0 35 38" fill="none" xmlns="http://www.w3.org/2000/svg">
<path d="M17.4706 0.543945C11.1445 0.543945 2.05554 2.06173 2.05554 2.06173L0.774902 2.29889V23.3108C0.774902 25.463 2.00811 27.295 3.57333 28.8602C5.13855 30.4254 7.16029 31.7653 9.12274 32.9393C13.0477 35.293 16.9014 36.876 16.9014 36.876L17.4706 37.0658L18.0398 36.876C18.0398 36.876 21.8935 35.293 25.8184 32.9393C27.7809 31.7653 29.8026 30.4254 31.3678 28.8602C32.9331 27.295 34.1663 25.463 34.1663 23.3108V2.29889L32.8856 2.06173C32.8856 2.06173 23.7967 0.543945 17.4706 0.543945ZM17.4706 3.57952C22.5872 3.57952 29.358 4.62893 31.1307 4.90759V23.3108C31.1307 24.1942 30.4667 25.3977 29.186 26.6784C27.9054 27.959 26.1327 29.2752 24.3006 30.378C20.9153 32.4057 17.9745 33.5381 17.4706 33.7456C16.9666 33.5381 14.0259 32.4057 10.6405 30.378C8.80851 29.2752 7.03578 27.959 5.75515 26.6784C4.47451 25.3977 3.81048 24.1942 3.81048 23.3108V4.90759C5.58321 4.62893 12.354 3.57952 17.4706 3.57952ZM8.36385 14.204V17.2396H15.9528V14.204H8.36385ZM18.9884 14.204V17.2396H26.5773V14.204H18.9884ZM12.5852 20.8444L10.2137 22.7416C10.2137 22.7416 12.9824 26.3464 17.4706 26.3464C21.9587 26.3464 24.7275 22.7416 24.7275 22.7416L22.356 20.8444C22.356 20.8444 20.269 23.3108 17.4706 23.3108C14.6722 23.3108 12.5852 20.8444 12.5852 20.8444Z" fill="white"/>
</svg>
