<svg width="239" height="120" viewBox="0 0 239 120" fill="none" xmlns="http://www.w3.org/2000/svg">
<path d="M0 26.12L14.532 52.095V67.939L0.017 93.863L0 26.12Z" fill="#5B57A2"/>
<path d="M55.7969 42.643L69.4139 34.297L97.2819 34.271L55.7969 59.685V42.643Z" fill="#D90751"/>
<path d="M55.7204 25.967L55.7974 60.357L41.2314 51.407V0L55.7204 25.967Z" fill="#FAB718"/>
<path d="M97.2824 34.271L69.4134 34.297L55.7204 25.967L41.2314 0L97.2824 34.271Z" fill="#ED6F26"/>
<path d="M55.7974 94.007V77.322L41.2314 68.542L41.2394 120L55.7974 94.007Z" fill="#63B22F"/>
<path d="M69.38 85.737L14.531 52.095L0 26.12L97.223 85.703L69.38 85.737Z" fill="#1487C9"/>
<path d="M41.2402 120L55.7962 94.007L69.3792 85.737L97.2222 85.703L41.2402 120Z" fill="#017F36"/>
<path d="M0.0166016 93.863L41.3496 68.543L27.4536 60.017L14.5316 67.939L0.0166016 93.863Z" fill="#984995"/>
</svg>
