<svg width="36" height="37" viewBox="0 0 36 37" fill="none" xmlns="http://www.w3.org/2000/svg">
<path d="M17.3135 0.194031C8.82154 0.194031 1.86196 7.15361 1.86196 15.6456V17.7471C0.999794 18.6733 0.457275 19.8856 0.457275 21.2643C0.457275 23.5057 1.90154 25.2389 3.79615 26.167C5.40107 32.1446 10.7986 36.7158 17.3135 36.7158C21.9029 36.7158 25.969 34.5567 28.5071 31.0971H28.551C31.2792 31.0971 33.5468 29.1538 34.0572 26.5758C34.319 26.4486 34.5676 26.2931 34.776 26.0847C35.3056 25.5551 35.5744 24.8072 35.5744 24.0737V17.0502C35.5744 16.3167 35.3056 15.5689 34.776 15.0392C34.2464 14.5096 33.4986 14.2409 32.765 14.2409H32.6937C31.9757 6.40075 25.3312 0.194031 17.3135 0.194031ZM17.3135 3.0034C23.4489 3.0034 28.5849 7.4225 29.717 13.2367C29.4626 13.1302 29.2085 13.0589 28.9652 13.0008C27.9677 12.7625 26.9714 12.7129 26.0818 12.4905C25.1922 12.2681 24.4893 11.9429 23.9446 11.2559C23.3999 10.569 22.9322 9.39885 22.9322 7.21745H20.1229C20.1229 9.98851 19.3431 11.0835 18.1612 11.8074C16.9794 12.5312 15.1041 12.7773 13.0693 12.8197C11.0344 12.8621 8.91136 12.7093 7.02802 13.0886C6.23643 13.248 5.45701 13.5284 4.78656 14.0406C5.5816 7.83488 10.8986 3.0034 17.3135 3.0034ZM21.3739 12.2573C21.512 12.4875 21.5841 12.8016 21.7443 13.0035C22.7798 14.3095 24.184 14.9132 25.4014 15.2176C26.6188 15.5219 27.7296 15.5942 28.3123 15.7334C28.5041 15.7792 28.5071 15.7901 28.551 15.8102V26.883H31.0256C30.574 27.7504 29.6916 28.2877 28.551 28.2877H19.9939C19.7036 27.4713 18.9315 26.883 18.0158 26.883C16.8528 26.883 15.9088 27.827 15.9088 28.9901C15.9088 30.1531 16.8528 31.0971 18.0158 31.0971H24.7759C22.8184 32.8665 20.2252 33.9065 17.3135 33.9065C11.9485 33.9065 7.44517 30.0162 6.32293 25.0284L6.1446 24.2355L5.36544 23.9941C4.05703 23.5915 3.26664 22.6289 3.26664 21.2643C3.26664 20.0865 4.22627 18.9078 5.04171 18.6854L6.07601 18.4028V17.3301C6.07601 16.71 6.19877 16.5263 6.38055 16.3479C6.56232 16.1695 6.94361 15.9717 7.58221 15.8431C8.85941 15.5859 10.9505 15.6718 13.1296 15.6264C15.3088 15.581 17.6476 15.4144 19.6263 14.2025C20.3476 13.7606 20.8587 13.0002 21.3739 12.2573ZM31.3603 17.0502H32.765V24.0737H31.3603V17.0502ZM7.4807 18.4549C7.4807 18.4549 7.4807 24.0737 13.0994 24.0737C14.6516 24.0737 15.9088 22.8165 15.9088 21.2643H18.7182C18.7182 22.8165 19.9754 24.0737 21.5275 24.0737C27.1463 24.0737 27.1463 18.4549 27.1463 18.4549H22.9322H13.0994H7.4807Z" fill="white"/>
</svg>
