<svg width="14" height="14" viewBox="0 0 14 14" fill="none" xmlns="http://www.w3.org/2000/svg">
<path d="M7.07806 0.595947C4.29649 0.595947 1.93236 2.37645 1.04433 4.8568C0.945094 5.13398 1.16047 5.41249 1.45488 5.41249H1.64698C1.84353 5.41249 2.01561 5.28414 2.08618 5.10068C2.85841 3.09317 4.80265 1.66629 7.07806 1.66629C10.0299 1.66629 12.4298 4.0662 12.4298 7.01801C12.4298 9.96981 10.0299 12.3697 7.07806 12.3697C4.80265 12.3697 2.85841 10.9428 2.08618 8.93533C2.01561 8.75187 1.84353 8.62352 1.64698 8.62352H1.45488C1.16047 8.62352 0.945094 8.90203 1.04433 9.17921C1.93236 11.6596 4.29649 13.4401 7.07806 13.4401C10.6194 13.4401 13.5001 10.5593 13.5001 7.01801C13.5001 3.47668 10.6194 0.595947 7.07806 0.595947ZM7.04524 4.81105C6.8694 4.63521 6.58431 4.63521 6.40847 4.81105L6.27593 4.94359C6.10009 5.11943 6.10009 5.40452 6.27593 5.58036L6.40976 5.71418C6.69341 5.99783 6.49252 6.48283 6.09137 6.48283H1.10627C0.857597 6.48283 0.656006 6.68442 0.656006 6.9331V7.10291C0.656006 7.35159 0.857597 7.55318 1.10627 7.55318H6.09137C6.49251 7.55318 6.69341 8.03818 6.40976 8.32183L6.27593 8.45565C6.1001 8.63149 6.10009 8.91658 6.27593 9.09242L6.40847 9.22496C6.58431 9.4008 6.8694 9.4008 7.04524 9.22496L8.86754 7.40266L8.93777 7.32924C9.10429 7.15516 9.10429 6.88085 8.93777 6.70677L8.86754 6.63335L7.04524 4.81105Z" fill="white"/>
</svg>
