<svg width="40" height="38" viewBox="0 0 40 38" fill="none" xmlns="http://www.w3.org/2000/svg">
<path d="M12.0977 0.548782C5.95666 0.373167 0.485148 4.99953 0.172334 11.2064C0.035134 14.0163 0.94065 16.6395 2.53216 18.6865L2.54314 18.692L3.06998 19.3506C2.79558 20.6951 3.16877 22.1494 4.20599 23.1867C5.0237 24.0044 6.11032 24.4215 7.18596 24.4215C7.18596 24.4215 7.19145 24.4215 7.19694 24.4215C7.19694 25.5026 7.60305 26.5837 8.42076 27.4014C9.23846 28.2191 10.3251 28.6362 11.4007 28.6362H11.4062C11.4062 29.7174 11.8178 30.7985 12.6355 31.6162C13.4532 32.4339 14.5398 32.851 15.6155 32.851H15.621C15.621 33.9321 16.0326 35.0132 16.8503 35.831C17.668 36.6487 18.7546 37.0658 19.8303 37.0658C20.9059 37.0658 21.9925 36.6487 22.8102 35.831L24.2151 34.426C24.6761 33.965 24.9944 33.4162 25.192 32.8345C25.2798 32.84 25.3676 32.851 25.4499 32.851C26.5256 32.851 27.6122 32.4339 28.4299 31.6162C29.2476 30.7985 29.6592 29.7174 29.6592 28.6362H29.6647C30.7403 28.6362 31.827 28.2191 32.6447 27.4014C33.4404 26.6057 33.8465 25.552 33.863 24.4928C34.9002 24.4599 36.0362 24.0812 36.8978 23.1483H36.9033C38.1326 21.8092 38.1272 19.9158 37.3094 18.3408C38.7583 16.3432 39.6199 13.8736 39.4827 11.2064C39.1754 4.99953 33.7038 0.373167 27.5628 0.548782C25.1371 0.614638 22.2669 1.14697 19.8303 3.24886C17.3936 1.14697 14.5234 0.614638 12.0977 0.548782ZM12.0154 3.35862C14.0569 3.4135 16.0326 3.75925 17.7832 5.18063L14.0514 8.79172L14.0404 8.7972C12.405 10.4326 12.405 13.1217 14.0404 14.7571C14.8581 15.5748 15.9448 15.9919 17.0204 15.9919C18.0961 15.9919 19.1827 15.5748 20.0004 14.7626L23.9846 10.921C24.7914 10.1472 26.0262 10.1692 26.811 10.965L34.8673 19.2134L34.8728 19.2189C35.4326 19.7731 35.4161 20.6073 34.8344 21.2384H34.8289V21.2439C34.4283 21.683 34.0276 21.7543 33.5227 21.6939C33.0178 21.6336 32.4855 21.2823 32.4306 21.2165L27.8701 16.431L25.8396 18.3627L30.647 23.4172L30.658 23.4281C31.2178 23.9879 31.2178 24.855 30.658 25.4148H30.6525C30.3781 25.6947 30.0269 25.8264 29.6647 25.8264C29.1708 25.8264 29.05 25.8483 28.8964 25.8044C28.7482 25.766 28.4354 25.6288 27.8262 25.0251L23.6554 20.6457L21.6248 22.5775L26.4323 27.6319L26.4433 27.6429C27.003 28.2027 27.003 29.0698 26.4433 29.6295H26.4378C26.1634 29.9094 25.8121 30.0411 25.4499 30.0411C25.3566 30.0411 25.2688 30.0247 25.181 30.0027C24.978 29.443 24.6597 28.9106 24.2151 28.4661C23.3974 27.6484 22.3163 27.2368 21.2352 27.2368H21.2297C21.2297 26.1557 20.8181 25.069 20.0004 24.2513C19.1827 23.4336 18.1015 23.022 17.0204 23.022H17.0149C17.0149 21.9409 16.6033 20.8543 15.7856 20.0366C14.9679 19.2189 13.8868 18.8073 12.8056 18.8073H12.8002C12.8002 17.7261 12.3886 16.6395 11.5709 15.8218C10.7531 15.0041 9.67201 14.5925 8.59088 14.5925C7.50975 14.5925 6.42862 15.0041 5.61091 15.8218L4.63954 16.7877C3.52 15.2785 2.8779 13.4016 2.98218 11.3436C3.21267 6.72824 7.32865 3.22691 12.0154 3.35862ZM27.6451 3.35862C32.3319 3.22691 36.4478 6.72824 36.6783 11.3436C36.7606 13.012 36.2558 14.5047 35.5039 15.8383L28.8195 9.00026C26.9811 7.11789 23.9298 7.07398 22.0419 8.90148L18.0247 12.765L18.0137 12.7705C17.7338 13.0504 17.3826 13.1821 17.0204 13.1821C16.6582 13.1821 16.307 13.0504 16.0326 12.7705H16.0271C15.4673 12.2107 15.4673 11.3436 16.0271 10.7838L21.2297 5.75138L21.2352 5.74589C23.1395 3.84157 25.3512 3.41899 27.6451 3.35862ZM8.59088 17.3914C8.9476 17.3914 9.30432 17.5286 9.58421 17.8085C10.144 18.3682 10.144 19.2353 9.58421 19.7951L8.17929 21.2H8.1738C7.8994 21.4799 7.54817 21.6116 7.18596 21.6116C6.82376 21.6116 6.47253 21.4799 6.19813 21.2H6.19264C5.63287 20.6402 5.63287 19.7731 6.19264 19.2134L7.59756 17.8085C7.87745 17.5286 8.23417 17.3914 8.59088 17.3914ZM12.8056 21.6061C13.1624 21.6061 13.5191 21.7433 13.799 22.0232C14.3587 22.583 14.3587 23.4501 13.799 24.0099L12.394 25.4148H12.3886C12.1142 25.6947 11.7629 25.8264 11.4007 25.8264C11.0385 25.8264 10.6873 25.6947 10.4129 25.4148H10.4074C9.84763 24.855 9.84763 23.9879 10.4074 23.4281L11.8123 22.0232C12.0922 21.7433 12.4489 21.6061 12.8056 21.6061ZM17.0204 25.8209C17.3771 25.8209 17.7338 25.9581 18.0137 26.238C18.5735 26.7978 18.5735 27.6649 18.0137 28.2246L16.6088 29.6295H16.6033C16.3289 29.9094 15.9777 30.0411 15.6155 30.0411C15.2533 30.0411 14.9021 29.9094 14.6277 29.6295H14.6222C14.0624 29.0698 14.0624 28.2027 14.6222 27.6429L16.0271 26.238C16.307 25.9581 16.6637 25.8209 17.0204 25.8209ZM21.2352 30.0357C21.5919 30.0357 21.9486 30.1729 22.2285 30.4527C22.7883 31.0125 22.7883 31.8796 22.2285 32.4394L20.8236 33.8443H20.8181C20.5437 34.1242 20.1925 34.2559 19.8303 34.2559C19.468 34.2559 19.1168 34.1242 18.8424 33.8443H18.8369C18.2772 33.2845 18.2772 32.4174 18.8369 31.8577L20.2418 30.4527C20.5217 30.1729 20.8785 30.0357 21.2352 30.0357Z" fill="white"/>
</svg>
