<svg xmlns="http://www.w3.org/2000/svg" width="47.555" height="30">
<g fill="#fff">
<path data-name="Контур 12543" d="M47.554 28.232a1.761 1.761 0 01-1.769 1.769H1.769A1.761 1.761 0 010 28.232V1.769A1.761 1.761 0 011.769 0h44.017a1.761 1.761 0 011.769 1.769z" opacity=".1"/>
<path data-name="Контур 12544" d="M18.078 8.712l-5.309 12.646H9.301l-2.62-10.087a1.44 1.44 0 00-.786-1.114 13.187 13.187 0 00-3.21-1.048l.066-.393h5.568a1.482 1.482 0 011.507 1.31l1.374 7.332 3.406-8.581h3.472zm13.559 8.515c0-3.341-4.585-3.537-4.585-4.978 0-.459.459-.917 1.376-1.048a5.7 5.7 0 013.21.59l.59-2.686a9.157 9.157 0 00-3.079-.59c-3.21 0-5.5 1.7-5.5 4.192 0 1.834 1.638 2.817 2.882 3.406s1.7.983 1.7 1.572c0 .852-.983 1.245-1.965 1.245a7.292 7.292 0 01-3.341-.786l-.59 2.751a10.11 10.11 0 003.6.655c3.406 0 5.633-1.7 5.7-4.323m8.517 4.131h3.017l-2.62-12.642h-2.82a1.447 1.447 0 00-1.376.917l-4.912 11.725h3.406l.655-1.9h4.192zm-3.668-4.454l1.7-4.716.983 4.716zM22.729 8.712l-2.686 12.646h-3.274l2.686-12.642h3.274z" opacity=".7"/>
</g>
</svg>