<svg width="20" height="20" viewBox="0 0 20 20" fill="none" xmlns="http://www.w3.org/2000/svg">
<g clip-path="url(#clip0_3282_610)">
<path fill-rule="evenodd" clip-rule="evenodd" d="M10 0C12.6711 0 15.1823 1.0402 17.0711 2.92895C18.9598 4.81766 20 7.32891 20 10C20 12.6711 18.9598 15.1823 17.0711 17.0711C15.1823 18.9598 12.6711 20 10 20C7.32891 20 4.81766 18.9598 2.92895 17.0711C1.04016 15.1823 0 12.6711 0 10C0 7.32891 1.04016 4.81766 2.92895 2.92895C4.81766 1.0402 7.32891 0 10 0ZM4.30129 7.35922C5.27602 6.38449 6.86207 6.38441 7.8368 7.35922C8.06926 7.59168 8.06926 7.96855 7.8368 8.20102C7.72062 8.31727 7.56824 8.37539 7.41594 8.37539C7.26363 8.37539 7.11133 8.31727 6.99508 8.20102C6.48453 7.69047 5.65375 7.69043 5.14313 8.20102C4.9107 8.43344 4.53379 8.43344 4.30129 8.20102C4.06883 7.96855 4.06883 7.59164 4.30129 7.35922ZM15.6986 7.35922C14.7239 6.38449 13.1378 6.38441 12.1631 7.35922C11.9306 7.59164 11.9306 7.96855 12.1631 8.20102C12.3956 8.43344 12.7725 8.43344 13.0049 8.20102C13.5155 7.69043 14.3462 7.69039 14.8569 8.20102C14.9731 8.31727 15.1254 8.37539 15.2777 8.37539C15.43 8.37539 15.5824 8.31727 15.6986 8.20102C15.9311 7.96855 15.9311 7.59168 15.6986 7.35922ZM4.12699 11.0318C4.12699 10.703 4.39348 10.4365 4.72223 10.4365H15.2778C15.6065 10.4365 15.873 10.703 15.873 11.0318C15.873 14.2701 13.2384 16.9048 10 16.9048C6.76164 16.9048 4.12699 14.2701 4.12699 11.0318ZM5.35512 11.627C5.64836 13.929 7.61961 15.7143 10 15.7143C12.3804 15.7143 14.3516 13.929 14.6449 11.627H5.35512Z" fill="white"/>
</g>
<defs>
<clipPath id="clip0_3282_610">
<rect width="20" height="20" fill="white"/>
</clipPath>
</defs>
</svg>
