<svg width="20" height="16" viewBox="0 0 20 16" fill="none" xmlns="http://www.w3.org/2000/svg">
<g clip-path="url(#clip0_5216_451)">
<path d="M14.8156 8.0732C14.8156 7.62164 14.6398 7.19703 14.3207 6.8775L14.1492 6.70602H13.3301C12.2488 6.70602 11.2199 6.42906 10.3094 5.89781L10.0867 6.06465C8.70672 7.10008 6.73652 6.98398 5.49141 5.73809L5.00742 5.2541C4.26836 4.51344 4.33695 3.30379 5.1375 2.6498L7.57656 0.654102C7.4375 0.626367 7.29453 0.612305 7.14961 0.612305H4.10039C3.51641 0.612305 2.96719 0.839648 2.5543 1.25254C2.36289 1.44434 2.1082 1.5498 1.83711 1.5498H0.585938C0.2625 1.5498 0 1.8123 0 2.13574V9.32324C0 9.64668 0.2625 9.90918 0.585938 9.90918H2.89258L7.25547 14.0154C7.92484 14.6449 8.9593 14.6307 9.60977 13.9795C9.92754 13.667 10.095 13.2884 10.1238 12.8838C10.9624 12.8226 11.6268 12.1561 11.6863 11.3213C12.5249 11.2601 13.1893 10.5936 13.2488 9.75879C14.1273 9.69465 14.8156 8.96598 14.8156 8.0732Z" fill="white"/>
<path d="M19.4155 1.5498H16.4077C16.0299 1.5498 15.6553 1.4248 15.353 1.19824C14.8491 0.820508 14.2249 0.612305 13.5952 0.612305H10.5256C9.86682 0.612305 9.20491 0.837266 8.67057 1.27441L5.88034 3.55723C5.61291 3.77578 5.59166 4.1791 5.83698 4.42523L6.32174 4.90957C7.14088 5.7291 8.45807 5.82246 9.38502 5.12715L10.2803 4.45566C11.1417 5.15453 12.2073 5.53418 13.3315 5.53418H14.6358L15.1506 6.04902C16.6006 7.50113 16.0949 9.94828 14.2131 10.7213C14.1112 10.9705 13.9737 11.2053 13.8038 11.4178C14.4936 11.3033 15.1467 11.0064 15.6889 10.5545C16.1885 10.1385 16.8217 9.90914 17.4717 9.90914H19.4155C19.7389 9.90914 20.0014 9.64664 20.0014 9.3232C20.0014 8.42836 20.0014 2.91145 20.0014 2.1357C20.0014 1.8123 19.7389 1.5498 19.4155 1.5498Z" fill="white"/>
</g>
<defs>
<clipPath id="clip0_5216_451">
<rect width="20" height="15.2" fill="white"/>
</clipPath>
</defs>
</svg>
