<svg width="22" height="22" viewBox="0 0 22 22" fill="none" xmlns="http://www.w3.org/2000/svg">
<mask id="mask0_3282_506" style="mask-type:luminance" maskUnits="userSpaceOnUse" x="0" y="0" width="22" height="22">
<path d="M22 0H0V22H22V0Z" fill="white"/>
</mask>
<g mask="url(#mask0_3282_506)">
<path d="M15.1653 8.53125H15.0138V14.197H15.1653C16.5893 14.197 17.7103 13.6213 17.7103 11.3186C17.7103 9.01601 16.5893 8.53125 15.1653 8.53125Z" fill="white"/>
<path d="M2.74078 3.73047C1.222 3.73047 -0.00921631 4.96168 -0.00921631 6.48047V16.2186C-0.00921631 17.7373 1.222 18.9686 2.74078 18.9686H19.2592C20.778 18.9686 22.0092 17.7373 22.0092 16.2186V6.48047C22.0092 4.96168 20.778 3.73047 19.2592 3.73047H2.74078ZM10.2268 16.2874H7.62116V12.3789H4.68223V16.2874H2.07661V6.44049H4.68223V10.1066H7.62116V6.44049H10.2268V16.2874ZM15.4683 16.2874H12.4082V6.44049H15.3168C18.3163 6.44049 20.3766 7.83419 20.3766 11.3185C20.3766 14.8028 18.3163 16.2874 15.4683 16.2874Z" fill="white"/>
</g>
</svg>
