<svg version="1.1" viewBox="0 0 13.691 18" xmlns="http://www.w3.org/2000/svg">
<path d="m13.682 15.346c-0.0672-4.2347-0.6202-5.4414-4.8524-6.2052 0 0-0.59575 0.75914-1.9843 0.75914s-1.9844-0.75914-1.9844-0.75914c-4.186 0.75549-4.7727 1.9442-4.8499 6.0676-0.006326 0.3367-0.009257 0.3544-0.010389 0.3153 2.58e-4 0.0733 5.66e-4 0.2087 5.66e-4 0.4449 0 0 1.0076 2.0313 6.8441 2.0313 5.8364 0 6.8442-2.0313 6.8442-2.0313 0-0.1517 1e-4 -0.2573 2e-4 -0.329-0.0011 0.0241-0.0034-0.0227-0.0076-0.2936zm8e-3 0.2936c2e-3 -0.0406 7e-4 -0.2816 0 0zm-13.689-0.1158c-6.18e-4 -0.1482-0.001237-0.0417 0 0zm6.8449-6.7207c2.0013 0 3.6238-1.9706 3.6238-4.4016 0-2.431-0.5327-4.4016-3.6238-4.4016-3.0911 0-3.6239 1.9706-3.6239 4.4016 0 2.4309 1.6225 4.4016 3.6239 4.4016z" fill="#66B66E"/>
</svg>
