<svg width="101" height="101" viewBox="0 0 101 101" fill="none" xmlns="http://www.w3.org/2000/svg">
<path d="M50.5 101C63.8934 101 76.7383 95.6795 86.2089 86.2089C95.6795 76.7383 101 63.8934 101 50.5C101 37.1066 95.6795 24.2617 86.2089 14.7911C76.7383 5.32052 63.8934 0 50.5 0C37.1066 0 24.2617 5.32052 14.7911 14.7911C5.32052 24.2617 0 37.1066 0 50.5C0 63.8934 5.32052 76.7383 14.7911 86.2089C24.2617 95.6795 37.1066 101 50.5 101ZM56.3706 41.5868L50.0581 71.2871C49.6162 73.4333 50.2412 74.6516 51.9771 74.6516C53.2018 74.6516 55.0513 74.2097 56.3075 73.0987L55.752 75.7248C53.9403 77.9089 49.9445 79.4996 46.5042 79.4996C42.0665 79.4996 40.1791 76.8357 41.4037 71.1734L46.0623 49.2817C46.4663 47.4321 46.1002 46.763 44.2506 46.3148L41.4037 45.8035L41.9213 43.3984L56.3769 41.5868H56.3706ZM50.5 34.7188C48.8258 34.7188 47.2202 34.0537 46.0364 32.8699C44.8526 31.686 44.1875 30.0804 44.1875 28.4062C44.1875 26.7321 44.8526 25.1265 46.0364 23.9426C47.2202 22.7588 48.8258 22.0938 50.5 22.0938C52.1742 22.0938 53.7798 22.7588 54.9636 23.9426C56.1474 25.1265 56.8125 26.7321 56.8125 28.4062C56.8125 30.0804 56.1474 31.686 54.9636 32.8699C53.7798 34.0537 52.1742 34.7188 50.5 34.7188Z" fill="#CACACA"/>
</svg>
