<svg width="21" height="21" viewBox="0 0 21 21" fill="none" xmlns="http://www.w3.org/2000/svg">
<g clip-path="url(#clip0_3282_559)">
<path d="M10.496 14.5381C11.6067 14.5381 12.5572 14.1427 13.348 13.3522C14.1387 12.5616 14.5341 11.6106 14.5341 10.5V4.03857C14.5341 2.92794 14.1391 1.97732 13.348 1.1864C12.5572 0.395658 11.6067 0 10.496 0C9.38537 0 8.4347 0.395658 7.64383 1.1864C6.85291 1.97718 6.45752 2.92794 6.45752 4.03857V10.5C6.45752 11.6106 6.85309 12.5616 7.64383 13.3522C8.43457 14.1427 9.38537 14.5381 10.496 14.5381Z" fill="white"/>
<path opacity="0.5" d="M17.5272 8.31699C17.3679 8.15711 17.1781 8.07715 16.9594 8.07715C16.7408 8.07715 16.5516 8.15711 16.3915 8.31699C16.2318 8.47683 16.1519 8.6661 16.1519 8.88477V10.5002C16.1519 12.0568 15.5986 13.3881 14.4922 14.4945C13.3861 15.6009 12.0546 16.1541 10.498 16.1541C8.94146 16.1541 7.61008 15.6009 6.50364 14.4945C5.39734 13.3884 4.84423 12.0568 4.84423 10.5002V8.88477C4.84423 8.6661 4.76427 8.47683 4.60448 8.31699C4.4446 8.15711 4.2555 8.07715 4.03661 8.07715C3.81772 8.07715 3.6284 8.15711 3.4686 8.31699C3.30868 8.47683 3.22876 8.6661 3.22876 8.88477V10.5002C3.22876 12.3596 3.84936 13.9772 5.09022 15.3526C6.33112 16.7281 7.86446 17.5168 9.6903 17.7186V19.3847H6.45957C6.24081 19.3847 6.05154 19.4647 5.8917 19.6246C5.73182 19.7843 5.65186 19.9737 5.65186 20.1925C5.65186 20.4109 5.73182 20.6006 5.8917 20.7603C6.05154 20.9201 6.24081 21.0003 6.45957 21.0003H14.5362C14.7549 21.0003 14.9445 20.9201 15.1041 20.7603C15.2642 20.6006 15.3442 20.4109 15.3442 20.1925C15.3442 19.9738 15.2642 19.7844 15.1041 19.6246C14.9445 19.4647 14.755 19.3847 14.5362 19.3847H11.3059V17.7186C13.1314 17.5168 14.6646 16.7281 15.9057 15.3526C17.1467 13.9772 17.7675 12.3596 17.7675 10.5002V8.88477C17.7675 8.66615 17.6873 8.47701 17.5272 8.31699Z" fill="white"/>
</g>
<defs>
<clipPath id="clip0_3282_559">
<rect width="21" height="21" fill="white"/>
</clipPath>
</defs>
</svg>
