<svg width="200" height="47" viewBox="0 0 200 47" fill="none" xmlns="http://www.w3.org/2000/svg">
<path d="M10.7315 0.0117188L0 24.9906H9.16301L10.9686 20.8163H22.789L24.5599 24.9906H27.2884V9.88291L23.0625 0.0117188H10.7315ZM13.7974 13.5719L16.8633 7.0421L19.9292 13.5719H13.7974Z" fill="black"/>
<path d="M82.5324 0.0117188L93.2639 24.9906H84.1009L82.2953 20.8163H70.475L68.704 24.9906H65.9755V9.88291L70.2014 0.0117188H82.5324ZM79.4665 13.5719L76.4006 7.0421L73.3347 13.5719H79.4665Z" fill="black"/>
<path d="M46.5979 13.7641L38.687 0.0117188H29.3606L29.3606 24.9906H37.3053V13.9285L43.1775 24.6337H49.7406L55.969 13.9049V24.9906H63.9029V0.0117188H54.5765L46.5979 13.7641Z" fill="black"/>
<path d="M113.414 21.1912C114.301 20.0454 114.752 18.6295 114.752 16.9798C114.752 15.7579 114.422 14.6176 113.823 13.7709C113.753 13.6712 113.676 13.5733 113.597 13.4809C113.565 13.4446 113.534 13.4083 113.502 13.3739L113.444 13.3123C113.033 12.8862 112.547 12.5798 111.994 12.4004C112.542 12.1737 113.019 11.8547 113.413 11.4504C113.439 11.4232 113.465 11.396 113.492 11.367L113.602 11.2419C114.331 10.3862 114.717 9.22231 114.717 7.87894C114.717 6.26363 114.282 4.87312 113.423 3.7473C110.567 0 103.705 0 100.775 0C91.8938 0 88.8492 3.34483 87.859 6.15123L87.8467 6.18568L89.0073 8.8561H96.3254V8.76546C96.3254 7.60338 96.7871 6.05877 100.776 6.05877H102.216C104.692 6.16573 105.949 6.89634 105.949 8.23427C105.949 9.30208 104.969 10.02 100.192 10.0563H99.8966V14.9475H99.9844C104.95 14.9475 105.947 15.6437 105.947 16.7695C105.947 18.0694 104.86 18.7691 102.625 18.9087C102.572 18.9124 102.52 18.916 102.469 18.9196L102.026 18.9377C101.956 18.9396 101.884 18.9414 101.81 18.9414C101.686 18.9414 101.558 18.9432 101.424 18.9432H101.084C96.5361 18.9432 96.3236 17.8337 96.3236 15.7053V15.6147H91.9429L95.8706 24.6557L95.918 24.6629C97.9301 25.0019 99.8282 25.0019 101.085 25.0019C107.31 25.0019 111.457 23.7202 113.416 21.1912H113.414Z" fill="black"/>
<path d="M166.839 8.93291H153.047V0H145.423V25.0019H153.047V16.0697H166.839V25.0019H174.784V0H166.839V8.93291Z" fill="black"/>
<path d="M135.173 22.4961C131.407 24.0111 128.69 24.0096 124.929 22.4961L123.661 26.5096C128.052 28.2951 132.054 28.2951 136.442 26.5096L135.173 22.4961Z" fill="black"/>
<path fill-rule="evenodd" clip-rule="evenodd" d="M120.898 14.8643L132.441 0.00390625H143.349V25.0059H138.146L138.024 24.6211L136.463 19.6816L135.75 19.9678V10.1562L126.997 20.9756C126.581 20.8447 126.145 20.6889 125.683 20.5029L123.64 19.6807L121.957 25.0059H113.473L113.785 24.8262C114.522 24.2879 115.154 23.6765 115.681 22.9883C116.882 21.4194 117.491 19.5081 117.491 17.3066C117.491 15.6013 117.018 13.9844 116.159 12.7559C116.078 12.6387 115.992 12.5235 115.901 12.4121C116.918 11.1605 117.456 9.51629 117.456 7.65527C117.456 5.49614 116.867 3.6171 115.701 2.07129C115.18 1.37928 114.661 0.507649 113.983 0.00390625H120.898V14.8643Z" fill="black"/>
<path fill-rule="evenodd" clip-rule="evenodd" d="M48.3205 29.2734C41.1081 29.2734 37.6516 31.9843 37.6516 37.6987C37.6516 43.8532 40.8113 46.7586 48.4576 46.7586C53.9518 46.7586 57.3248 45.6339 58.7224 42.3817L58.6869 33.8609C57.1919 30.4157 53.5589 29.2749 48.3205 29.2749V29.2734ZM48.5269 42.2656C45.093 42.2656 43.5132 40.5076 43.5132 38.0168C43.5132 35.3556 45.093 33.768 48.459 33.768C51.4576 33.768 53.6098 35.1838 53.6098 38.0168C53.6098 40.8498 51.6413 42.2656 48.5269 42.2656Z" fill="black"/>
<path fill-rule="evenodd" clip-rule="evenodd" d="M48.3205 29.2734C41.1081 29.2734 37.6516 31.9843 37.6516 37.6987C37.6516 43.8532 40.8113 46.7586 48.4576 46.7586C53.9518 46.7586 57.3248 45.6339 58.7224 42.3817L58.6869 33.8609C57.1919 30.4157 53.5589 29.2749 48.3205 29.2749V29.2734ZM48.5269 42.2656C45.093 42.2656 43.5132 40.5076 43.5132 38.0168C43.5132 35.3556 45.093 33.768 48.459 33.768C51.4576 33.768 53.6098 35.1838 53.6098 38.0168C53.6098 40.8498 51.6413 42.2656 48.5269 42.2656Z" fill="black"/>
<path fill-rule="evenodd" clip-rule="evenodd" d="M105.181 29.6309L101.244 38.7652L104.32 46.4083L105.269 43.7443H113.215L114.335 46.4024H120.553L113.299 29.6309H105.181ZM107.17 38.8821L109.231 34.4977L111.291 38.8821H107.17Z" fill="black"/>
<path fill-rule="evenodd" clip-rule="evenodd" d="M105.181 29.6309L101.244 38.7652L104.32 46.4083L105.269 43.7443H113.215L114.335 46.4024H120.553L113.299 29.6309H105.181ZM107.17 38.8821L109.231 34.4977L111.291 38.8821H107.17Z" fill="black"/>
<path d="M87.3307 29.6309L82.9016 39.9792V46.4024H86.2903L91.4032 34.3511L96.5175 46.4024H102.626L95.5217 29.6309H87.3307Z" fill="black"/>
<path d="M87.3307 29.6309L82.9016 39.9792V46.4024H86.2903L91.4032 34.3511L96.5175 46.4024H102.626L95.5217 29.6309H87.3307Z" fill="black"/>
<path d="M139.897 46.4024V29.6309H132.643L125.043 39.6224V29.6309H119.517V39.444L122.625 46.4024H126.77L134.715 36.4108V46.4024H139.897Z" fill="black"/>
<path d="M139.897 46.4024V29.6309H132.643L125.043 39.6224V29.6309H119.517V39.444L122.625 46.4024H126.77L134.715 36.4108V46.4024H139.897Z" fill="black"/>
<path d="M80.8292 46.4024V29.6309H74.6116V35.3403H67.0123V29.6309H60.7947V46.4024H67.0123V40.3361H74.6116V46.4024H80.8292Z" fill="black"/>
<path d="M80.8292 46.4024V29.6309H74.6116V35.3403H67.0123V29.6309H60.7947V46.4024H67.0123V40.3361H74.6116V46.4024H80.8292Z" fill="black"/>
<path d="M162.348 46.4024V29.6309H155.785V35.3403H148.186V29.6309H141.969V46.4024H148.186V40.3361H155.785V46.4024H162.348Z" fill="black"/>
<path d="M162.348 46.4024V29.6309H155.785V35.3403H148.186V29.6309H141.969V46.4024H148.186V40.3361H155.785V46.4024H162.348Z" fill="black"/>
<path d="M176.875 0L176.857 25.0019H184.669V8.45683H200L199.961 0H176.875Z" fill="black"/>
</svg>
