<svg xmlns="http://www.w3.org/2000/svg" viewBox="0 0 28 28"><path d="M14 3C8 3 3 8 3 14s5 11 11 11 11-5 11-11S20 3 14 3zm6.5 8.5c0 3.6-2.7 7.7-7.7 7.7-1.5 0-2.9-.5-4.1-1.2.2 0 .4.1.6.1 1.2 0 2.3-.4 3.2-1.1-1.1 0-2.1-.8-2.4-1.8.2 0 .3.1.5.1s.3 0 .5-.1c-1.2-.2-2.1-1.3-2.1-2.5v0c.4.2.8.3 1.3.4-.7-.5-1.2-1.3-1.2-2.3 0-.5.1-1 .4-1.4 1.3 1.6 3.2 2.6 5.4 2.7 0-.2-.1-.4-.1-.6 0-1.5 1.2-2.7 2.7-2.7.8 0 1.5.3 2 .9.6-.1 1.2-.4 1.7-.7-.2.6-.6 1.1-1.2 1.4.5-.1 1.1-.2 1.6-.4-.4.4-.8.8-1.2 1.1z" fill="#858585"/></svg>
