<svg xmlns="http://www.w3.org/2000/svg" viewBox="0 0 28 28"><path d="M14.5 3C8 3 3 8 3 14.5S8 26 14.5 26 26 21 26 14.5 21 3 14.5 3zm6.8 9.8c-.3 1.6-1.6 4.2-2.5 5.6-.5.8-1 1.3-1.5 1.3-.2 0-.5-.2-.9-.5-.7-.6-1.4-1.3-2-2-.3-.3-.5-.4-.7-.2-.2-.1-.4 0-.5.2l-.3.4c-.2.2-.3.3-.6.1-.8-.4-1.5-.9-2.2-1.5-1.6-1.4-2.8-3.2-3.2-4.2-.1-.2 0-.4.2-.5l.6-.3c.2 0 .4-.1.5.1l1 1.5c.3.5.5.7.8.8.2.1.4 0 .5-.2l.3-.7c.2-.8.4-1.5.5-2 0-.3-.1-.5-.3-.7-.2-.1-.3-.3-.3-.4 0-.2.1-.3.3-.4h.5c.7 0 1.4-.1 2.1-.2.4 0 .8 0 1 .2.2.1.3.4.3.7 0 .3-.2.8-.4 1.3-.1.2-.2.5-.2.7s.1.3.3.4c.2.1.3.2.4.3.3.2.6.5.9.8.2.3.5.5.7.7.2.2.4.4.4.6 0 .2-.1.3-.4.3l-.4-.1z" fill="#858585"/></svg>
