<svg xmlns="http://www.w3.org/2000/svg" viewBox="0 0 28 28"><path d="M14 3C8 3 3 8 3 14s5 11 11 11 11-5 11-11S20 3 14 3zm7.3 8.9l-.1.4c-.2.9-.4 1.9-.7 2.8l-.3.8c-.3.7-.7 1.1-1.4 1.2-1.2.2-2.5.3-3.7.4l-2.6.1c-1.4 0-2.8-.1-4.1-.3-.5-.1-1-.2-1.4-.4-.4-.2-.7-.5-.9-.9-.3-.6-.5-1.3-.6-2-.1-.7-.2-1.5-.2-2.2v-1.1c0-1 .1-2.1.3-3.1.1-.5.2-1 .4-1.4.2-.4.5-.7.9-.9.4-.2.8-.3 1.3-.4 1.2-.2 2.5-.3 3.8-.3l2.4-.1c1.2 0 2.5.1 3.7.3.6.1 1.1.3 1.5.5.4.2.7.5.9.9.3.7.5 1.4.6 2.2.1.8.2 1.6.2 2.4v.6zm-8 2.8l4.1-2.4-4.1-2.4v4.8z" fill="#858585"/></svg>
